<svg width="23" height="15" viewBox="0 0 23 15" fill="none" xmlns="http://www.w3.org/2000/svg">
<path d="M1.48574 14.6667H21.2264C21.9049 14.6667 22.4602 14.1167 22.4602 13.4444C22.4602 12.7722 21.9049 12.2222 21.2264 12.2222H1.48574C0.807158 12.2222 0.251953 12.7722 0.251953 13.4444C0.251953 14.1167 0.807158 14.6667 1.48574 14.6667ZM1.48574 8.55556H21.2264C21.9049 8.55556 22.4602 8.00556 22.4602 7.33333C22.4602 6.66111 21.9049 6.11111 21.2264 6.11111H1.48574C0.807158 6.11111 0.251953 6.66111 0.251953 7.33333C0.251953 8.00556 0.807158 8.55556 1.48574 8.55556ZM0.251953 1.22222C0.251953 1.89444 0.807158 2.44444 1.48574 2.44444H21.2264C21.9049 2.44444 22.4602 1.89444 22.4602 1.22222C22.4602 0.55 21.9049 0 21.2264 0H1.48574C0.807158 0 0.251953 0.55 0.251953 1.22222Z" fill="white"/>
</svg>
