<svg width="15" height="20" viewBox="0 0 15 20" fill="none" xmlns="http://www.w3.org/2000/svg">
<path d="M6.13682 10.7881L6.04486 10.75H5.94531H5.75C4.09973 10.75 2.625 11.9121 2.625 13.5V14.25C2.625 15.0093 3.31406 15.5 4 15.5H11C11.6859 15.5 12.375 15.0093 12.375 14.25V13.5C12.375 11.9121 10.9003 10.75 9.25 10.75H9.05469H8.95438L8.86184 10.7887C8.444 10.9634 7.98205 11.0625 7.5 11.0625C7.01867 11.0625 6.56012 10.9636 6.13682 10.7881ZM1.875 0.5H13.125C13.884 0.5 14.5 1.11599 14.5 1.875V18.125C14.5 18.884 13.884 19.5 13.125 19.5H1.875C1.11599 19.5 0.5 18.884 0.5 18.125V1.875C0.5 1.11599 1.11599 0.5 1.875 0.5ZM10.5 7.5C10.5 5.84495 9.15505 4.5 7.5 4.5C5.84495 4.5 4.5 5.84495 4.5 7.5C4.5 9.15505 5.84495 10.5 7.5 10.5C9.15505 10.5 10.5 9.15505 10.5 7.5Z" fill="black" stroke="black"/>
</svg>
