<svg width="208" height="157" viewBox="0 0 208 157" fill="none" xmlns="http://www.w3.org/2000/svg">
<g clip-path="url(#clip0_155_2)">
<path d="M121.16 27.6772C125.058 27.6772 128.219 24.3975 128.219 20.3518C128.219 16.3061 125.058 13.0264 121.16 13.0264C117.262 13.0264 114.102 16.3061 114.102 20.3518C114.102 24.3975 117.262 27.6772 121.16 27.6772Z" fill="#F2F2F2"/>
<path d="M175.915 136.395C186.407 128.101 191.418 114.165 188.281 100.871C188.203 100.541 188.12 100.211 188.034 99.8822C185.954 91.9909 180.809 84.4909 173.309 81.9694C167.012 79.8523 160.139 81.4803 153.57 80.6384C140.674 78.9857 130.677 68.157 123.642 56.8194C116.607 45.4816 111.201 32.7907 101.853 23.4241C86.4455 7.98485 61.3114 4.66077 42.2078 14.7106C23.1043 24.7604 10.9355 47.0568 11.4544 69.2779C11.9734 91.499 24.6845 112.744 43.144 124.016C49.9253 128.157 57.7685 131.09 65.5741 130.063C72.3469 129.173 78.5008 125.396 85.2418 124.275C95.8401 122.512 106.371 127.485 115.538 133.28C124.704 139.075 133.559 145.944 143.975 148.631C154.09 151.239 166.621 143.741 175.915 136.395Z" fill="#F2F2F2"/>
<path d="M160.84 15.1771C160.61 15.018 160.378 14.8671 160.148 14.7135C153.499 10.3008 146.373 6.71589 138.917 4.03297L137.188 28.785H126.228V0.419758C125.538 0.271608 124.843 0.131689 124.148 0V28.785H111.123C103.953 28.785 97.0759 25.8289 92.0058 20.567C86.9356 15.3051 84.0872 8.16849 84.0872 0.727064C83.3893 0.883445 82.6967 1.05077 82.0041 1.2291V28.785H71.3955L69.7486 5.18251C62.0862 8.23229 54.8118 12.2429 48.0873 17.1251C47.971 17.2074 47.8547 17.2924 47.741 17.3747C47.1568 17.8 46.5805 18.2334 46.0068 18.6724V113.102H77.2721L76.7196 105.159L73.6795 61.5509H134.902L131.861 105.159L131.309 113.102H162.228V16.1319C161.768 15.8082 161.305 15.4899 160.84 15.1771ZM82.0041 54.3491H73.1773L71.5462 30.9469H82.0041V54.3491ZM124.148 54.3491H109.323V53.8855C109.323 53.6626 109.28 53.4419 109.198 53.236C109.116 53.0301 108.995 52.8431 108.843 52.6856C108.691 52.5281 108.511 52.4033 108.312 52.3182C108.114 52.2332 107.901 52.1896 107.686 52.19H101.241C101.027 52.1899 100.814 52.2337 100.616 52.3188C100.418 52.404 100.238 52.5289 100.086 52.6864C99.9341 52.8438 99.8138 53.0308 99.7317 53.2365C99.6496 53.4423 99.6074 53.6628 99.6075 53.8855V54.3491H84.0872V30.9469H124.148V54.3491ZM126.228 54.3491V30.9469H137.038L135.407 54.3491H126.228Z" fill="black"/>
<path d="M0 119.148C2.29652 121.972 4.78047 124.626 7.43367 127.091L200.566 127.365C203.22 124.901 205.703 122.247 208 119.423L0 119.148Z" fill="#3F3D56"/>
<path d="M130.97 93.7162V117.229C130.97 117.529 131.085 117.816 131.289 118.028C131.493 118.24 131.77 118.359 132.059 118.359H165.633C165.922 118.359 166.198 118.24 166.403 118.028C166.607 117.816 166.722 117.529 166.722 117.229V93.7162C166.721 93.4169 166.606 93.1299 166.402 92.9184C166.198 92.7068 165.921 92.5878 165.633 92.5874H132.059C131.77 92.5878 131.494 92.7068 131.289 92.9184C131.085 93.13 130.97 93.4169 130.97 93.7162Z" fill="#3F3D56"/>
<path d="M131.757 94.009V116.939C131.757 117.1 131.818 117.253 131.928 117.366C132.037 117.479 132.185 117.543 132.339 117.543H165.353C165.507 117.543 165.655 117.479 165.764 117.366C165.873 117.253 165.935 117.1 165.935 116.939V94.009C165.935 93.8487 165.874 93.695 165.764 93.5815C165.655 93.4681 165.507 93.4042 165.353 93.4038H132.339C132.184 93.4042 132.036 93.4681 131.927 93.5815C131.818 93.695 131.757 93.8487 131.757 94.009Z" fill="#050505"/>
<path d="M130.267 121.815C130.328 121.895 130.407 121.96 130.496 122.004C130.585 122.048 130.682 122.071 130.781 122.07H166.731C166.829 122.07 166.926 122.047 167.015 122.003C167.104 121.959 167.182 121.895 167.244 121.816C167.306 121.737 167.35 121.644 167.373 121.545C167.396 121.446 167.398 121.343 167.377 121.243L166.819 118.492C166.796 118.38 166.746 118.275 166.675 118.188C166.603 118.101 166.511 118.034 166.408 117.993C166.333 117.963 166.253 117.947 166.173 117.947H131.337C131.256 117.947 131.177 117.963 131.102 117.993C130.998 118.034 130.907 118.101 130.835 118.188C130.763 118.275 130.713 118.38 130.69 118.492L130.132 121.243C130.112 121.343 130.114 121.446 130.137 121.545C130.161 121.644 130.205 121.736 130.267 121.815Z" fill="#2F2E41"/>
<path d="M164.94 119.132H165.789C165.86 119.132 165.918 119.072 165.918 118.998V118.576C165.918 118.502 165.86 118.442 165.789 118.442H164.94C164.869 118.442 164.811 118.502 164.811 118.576V118.998C164.811 119.072 164.869 119.132 164.94 119.132Z" fill="#3F3D56"/>
<path d="M162.725 119.132H163.574C163.645 119.132 163.703 119.072 163.703 118.998V118.576C163.703 118.502 163.645 118.442 163.574 118.442H162.725C162.654 118.442 162.596 118.502 162.596 118.576V118.998C162.596 119.072 162.654 119.132 162.725 119.132Z" fill="#3F3D56"/>
<path d="M160.511 119.132H161.36C161.431 119.132 161.489 119.072 161.489 118.998V118.576C161.489 118.502 161.431 118.442 161.36 118.442H160.511C160.44 118.442 160.382 118.502 160.382 118.576V118.998C160.382 119.072 160.44 119.132 160.511 119.132Z" fill="#3F3D56"/>
<path d="M158.296 119.132H159.145C159.217 119.132 159.274 119.072 159.274 118.998V118.576C159.274 118.502 159.217 118.442 159.145 118.442H158.296C158.225 118.442 158.167 118.502 158.167 118.576V118.998C158.167 119.072 158.225 119.132 158.296 119.132Z" fill="#3F3D56"/>
<path d="M156.081 119.132H156.931C157.002 119.132 157.06 119.072 157.06 118.998V118.576C157.06 118.502 157.002 118.442 156.931 118.442H156.081C156.01 118.442 155.952 118.502 155.952 118.576V118.998C155.952 119.072 156.01 119.132 156.081 119.132Z" fill="#3F3D56"/>
<path d="M153.868 119.132H154.717C154.788 119.132 154.846 119.072 154.846 118.998V118.576C154.846 118.502 154.788 118.442 154.717 118.442H153.868C153.796 118.442 153.738 118.502 153.738 118.576V118.998C153.738 119.072 153.796 119.132 153.868 119.132Z" fill="#3F3D56"/>
<path d="M151.653 119.132H152.502C152.573 119.132 152.631 119.072 152.631 118.998V118.576C152.631 118.502 152.573 118.442 152.502 118.442H151.653C151.581 118.442 151.524 118.502 151.524 118.576V118.998C151.524 119.072 151.581 119.132 151.653 119.132Z" fill="#3F3D56"/>
<path d="M149.438 119.132H150.287C150.358 119.132 150.416 119.072 150.416 118.998V118.576C150.416 118.502 150.358 118.442 150.287 118.442H149.438C149.367 118.442 149.309 118.502 149.309 118.576V118.998C149.309 119.072 149.367 119.132 149.438 119.132Z" fill="#3F3D56"/>
<path d="M147.224 119.132H148.073C148.144 119.132 148.202 119.072 148.202 118.998V118.576C148.202 118.502 148.144 118.442 148.073 118.442H147.224C147.153 118.442 147.095 118.502 147.095 118.576V118.998C147.095 119.072 147.153 119.132 147.224 119.132Z" fill="#3F3D56"/>
<path d="M145.009 119.132H145.858C145.93 119.132 145.987 119.072 145.987 118.998V118.576C145.987 118.502 145.93 118.442 145.858 118.442H145.009C144.938 118.442 144.88 118.502 144.88 118.576V118.998C144.88 119.072 144.938 119.132 145.009 119.132Z" fill="#3F3D56"/>
<path d="M142.794 119.132H143.643C143.715 119.132 143.772 119.072 143.772 118.998V118.576C143.772 118.502 143.715 118.442 143.643 118.442H142.794C142.723 118.442 142.665 118.502 142.665 118.576V118.998C142.665 119.072 142.723 119.132 142.794 119.132Z" fill="#3F3D56"/>
<path d="M140.58 119.132H141.43C141.501 119.132 141.559 119.072 141.559 118.998V118.576C141.559 118.502 141.501 118.442 141.43 118.442H140.58C140.509 118.442 140.451 118.502 140.451 118.576V118.998C140.451 119.072 140.509 119.132 140.58 119.132Z" fill="#3F3D56"/>
<path d="M138.366 119.132H139.215C139.286 119.132 139.344 119.072 139.344 118.998V118.576C139.344 118.502 139.286 118.442 139.215 118.442H138.366C138.294 118.442 138.237 118.502 138.237 118.576V118.998C138.237 119.072 138.294 119.132 138.366 119.132Z" fill="#3F3D56"/>
<path d="M136.152 119.132H137.001C137.072 119.132 137.13 119.072 137.13 118.998V118.576C137.13 118.502 137.072 118.442 137.001 118.442H136.152C136.08 118.442 136.023 118.502 136.023 118.576V118.998C136.023 119.072 136.08 119.132 136.152 119.132Z" fill="#3F3D56"/>
<path d="M133.937 119.132H134.786C134.857 119.132 134.915 119.072 134.915 118.998V118.576C134.915 118.502 134.857 118.442 134.786 118.442H133.937C133.866 118.442 133.808 118.502 133.808 118.576V118.998C133.808 119.072 133.866 119.132 133.937 119.132Z" fill="#3F3D56"/>
<path d="M131.722 119.132H132.571C132.642 119.132 132.7 119.072 132.7 118.998V118.576C132.7 118.502 132.642 118.442 132.571 118.442H131.722C131.651 118.442 131.593 118.502 131.593 118.576V118.998C131.593 119.072 131.651 119.132 131.722 119.132Z" fill="#3F3D56"/>
<path d="M164.966 120.281H165.815C165.887 120.281 165.944 120.221 165.944 120.147V119.726C165.944 119.652 165.887 119.592 165.815 119.592H164.966C164.895 119.592 164.837 119.652 164.837 119.726V120.147C164.837 120.221 164.895 120.281 164.966 120.281Z" fill="#3F3D56"/>
<path d="M162.751 120.281H163.6C163.672 120.281 163.729 120.221 163.729 120.147V119.726C163.729 119.652 163.672 119.592 163.6 119.592H162.751C162.68 119.592 162.622 119.652 162.622 119.726V120.147C162.622 120.221 162.68 120.281 162.751 120.281Z" fill="#3F3D56"/>
<path d="M160.536 120.281H161.386C161.457 120.281 161.515 120.221 161.515 120.147V119.726C161.515 119.652 161.457 119.592 161.386 119.592H160.536C160.465 119.592 160.407 119.652 160.407 119.726V120.147C160.407 120.221 160.465 120.281 160.536 120.281Z" fill="#3F3D56"/>
<path d="M158.323 120.281H159.172C159.243 120.281 159.301 120.221 159.301 120.147V119.726C159.301 119.652 159.243 119.592 159.172 119.592H158.323C158.251 119.592 158.194 119.652 158.194 119.726V120.147C158.194 120.221 158.251 120.281 158.323 120.281Z" fill="#3F3D56"/>
<path d="M156.108 120.281H156.957C157.028 120.281 157.086 120.221 157.086 120.147V119.726C157.086 119.652 157.028 119.592 156.957 119.592H156.108C156.036 119.592 155.979 119.652 155.979 119.726V120.147C155.979 120.221 156.036 120.281 156.108 120.281Z" fill="#3F3D56"/>
<path d="M153.893 120.281H154.742C154.813 120.281 154.871 120.221 154.871 120.147V119.726C154.871 119.652 154.813 119.592 154.742 119.592H153.893C153.822 119.592 153.764 119.652 153.764 119.726V120.147C153.764 120.221 153.822 120.281 153.893 120.281Z" fill="#3F3D56"/>
<path d="M151.679 120.281H152.528C152.599 120.281 152.657 120.221 152.657 120.147V119.726C152.657 119.652 152.599 119.592 152.528 119.592H151.679C151.608 119.592 151.55 119.652 151.55 119.726V120.147C151.55 120.221 151.608 120.281 151.679 120.281Z" fill="#3F3D56"/>
<path d="M149.464 120.281H150.313C150.385 120.281 150.442 120.221 150.442 120.147V119.726C150.442 119.652 150.385 119.592 150.313 119.592H149.464C149.393 119.592 149.335 119.652 149.335 119.726V120.147C149.335 120.221 149.393 120.281 149.464 120.281Z" fill="#3F3D56"/>
<path d="M147.25 120.281H148.099C148.171 120.281 148.229 120.221 148.229 120.147V119.726C148.229 119.652 148.171 119.592 148.099 119.592H147.25C147.179 119.592 147.121 119.652 147.121 119.726V120.147C147.121 120.221 147.179 120.281 147.25 120.281Z" fill="#3F3D56"/>
<path d="M145.035 120.281H145.885C145.956 120.281 146.014 120.221 146.014 120.147V119.726C146.014 119.652 145.956 119.592 145.885 119.592H145.035C144.964 119.592 144.906 119.652 144.906 119.726V120.147C144.906 120.221 144.964 120.281 145.035 120.281Z" fill="#3F3D56"/>
<path d="M142.821 120.281H143.67C143.741 120.281 143.799 120.221 143.799 120.147V119.726C143.799 119.652 143.741 119.592 143.67 119.592H142.821C142.749 119.592 142.692 119.652 142.692 119.726V120.147C142.692 120.221 142.749 120.281 142.821 120.281Z" fill="#3F3D56"/>
<path d="M140.607 120.281H141.456C141.527 120.281 141.585 120.221 141.585 120.147V119.726C141.585 119.652 141.527 119.592 141.456 119.592H140.607C140.535 119.592 140.478 119.652 140.478 119.726V120.147C140.478 120.221 140.535 120.281 140.607 120.281Z" fill="#3F3D56"/>
<path d="M138.392 120.281H139.241C139.312 120.281 139.37 120.221 139.37 120.147V119.726C139.37 119.652 139.312 119.592 139.241 119.592H138.392C138.321 119.592 138.263 119.652 138.263 119.726V120.147C138.263 120.221 138.321 120.281 138.392 120.281Z" fill="#3F3D56"/>
<path d="M136.177 120.281H137.026C137.097 120.281 137.155 120.221 137.155 120.147V119.726C137.155 119.652 137.097 119.592 137.026 119.592H136.177C136.106 119.592 136.048 119.652 136.048 119.726V120.147C136.048 120.221 136.106 120.281 136.177 120.281Z" fill="#3F3D56"/>
<path d="M133.963 120.281H134.812C134.884 120.281 134.941 120.221 134.941 120.147V119.726C134.941 119.652 134.884 119.592 134.812 119.592H133.963C133.892 119.592 133.834 119.652 133.834 119.726V120.147C133.834 120.221 133.892 120.281 133.963 120.281Z" fill="#3F3D56"/>
<path d="M131.748 120.281H132.597C132.669 120.281 132.727 120.221 132.727 120.147V119.726C132.727 119.652 132.669 119.592 132.597 119.592H131.748C131.677 119.592 131.619 119.652 131.619 119.726V120.147C131.619 120.221 131.677 120.281 131.748 120.281Z" fill="#3F3D56"/>
<path d="M146.586 121.66H155.185C155.257 121.66 155.314 121.6 155.314 121.526V121.105C155.314 121.031 155.257 120.971 155.185 120.971H146.586C146.514 120.971 146.456 121.031 146.456 121.105V121.526C146.456 121.6 146.514 121.66 146.586 121.66Z" fill="#3F3D56"/>
<path d="M137.474 98.4204H136.722C136.494 98.4204 136.31 98.6122 136.31 98.8487C136.31 99.0852 136.494 99.277 136.722 99.277H137.474C137.702 99.277 137.887 99.0852 137.887 98.8487C137.887 98.6122 137.702 98.4204 137.474 98.4204Z" fill="white"/>
<path d="M146.072 98.4204H145.32C145.092 98.4204 144.907 98.6122 144.907 98.8487C144.907 99.0852 145.092 99.277 145.32 99.277H146.072C146.3 99.277 146.484 99.0852 146.484 98.8487C146.484 98.6122 146.3 98.4204 146.072 98.4204Z" fill="white"/>
<path d="M148.508 98.4204H147.756C147.529 98.4204 147.344 98.6122 147.344 98.8487C147.344 99.0852 147.529 99.277 147.756 99.277H148.508C148.736 99.277 148.921 99.0852 148.921 98.8487C148.921 98.6122 148.736 98.4204 148.508 98.4204Z" fill="white"/>
<path d="M143.733 98.3486H139.061C138.833 98.3486 138.648 98.5404 138.648 98.7769C138.648 99.0134 138.833 99.2052 139.061 99.2052H143.733C143.961 99.2052 144.146 99.0134 144.146 98.7769C144.146 98.5404 143.961 98.3486 143.733 98.3486Z" fill="white"/>
<path d="M155.197 98.3486H150.525C150.297 98.3486 150.112 98.5404 150.112 98.7769C150.112 99.0134 150.297 99.2052 150.525 99.2052H155.197C155.425 99.2052 155.61 99.0134 155.61 98.7769C155.61 98.5404 155.425 98.3486 155.197 98.3486Z" fill="white"/>
<path d="M139.767 100.354H139.015C138.787 100.354 138.603 100.545 138.603 100.782C138.603 101.018 138.787 101.21 139.015 101.21H139.767C139.995 101.21 140.18 101.018 140.18 100.782C140.18 100.545 139.995 100.354 139.767 100.354Z" fill="white"/>
<path d="M148.365 100.354H147.613C147.385 100.354 147.2 100.545 147.2 100.782C147.2 101.018 147.385 101.21 147.613 101.21H148.365C148.593 101.21 148.777 101.018 148.777 100.782C148.777 100.545 148.593 100.354 148.365 100.354Z" fill="white"/>
<path d="M150.8 100.354H150.048C149.82 100.354 149.636 100.545 149.636 100.782C149.636 101.018 149.82 101.21 150.048 101.21H150.8C151.028 101.21 151.213 101.018 151.213 100.782C151.213 100.545 151.028 100.354 150.8 100.354Z" fill="white"/>
<path d="M146.026 100.282H141.354C141.126 100.282 140.941 100.474 140.941 100.711C140.941 100.947 141.126 101.139 141.354 101.139H146.026C146.254 101.139 146.439 100.947 146.439 100.711C146.439 100.474 146.254 100.282 146.026 100.282Z" fill="#9721FF"/>
<path d="M157.489 100.282H152.817C152.589 100.282 152.404 100.474 152.404 100.711C152.404 100.947 152.589 101.139 152.817 101.139H157.489C157.717 101.139 157.902 100.947 157.902 100.711C157.902 100.474 157.717 100.282 157.489 100.282Z" fill="white"/>
<path d="M142.06 102.287H141.308C141.08 102.287 140.896 102.478 140.896 102.715C140.896 102.951 141.08 103.143 141.308 103.143H142.06C142.288 103.143 142.473 102.951 142.473 102.715C142.473 102.478 142.288 102.287 142.06 102.287Z" fill="white"/>
<path d="M150.658 102.287H149.906C149.678 102.287 149.493 102.478 149.493 102.715C149.493 102.951 149.678 103.143 149.906 103.143H150.658C150.885 103.143 151.07 102.951 151.07 102.715C151.07 102.478 150.885 102.287 150.658 102.287Z" fill="white"/>
<path d="M153.093 102.287H152.341C152.113 102.287 151.929 102.478 151.929 102.715C151.929 102.951 152.113 103.143 152.341 103.143H153.093C153.321 103.143 153.506 102.951 153.506 102.715C153.506 102.478 153.321 102.287 153.093 102.287Z" fill="white"/>
<path d="M148.318 102.215H143.646C143.418 102.215 143.233 102.407 143.233 102.644C143.233 102.88 143.418 103.072 143.646 103.072H148.318C148.546 103.072 148.731 102.88 148.731 102.644C148.731 102.407 148.546 102.215 148.318 102.215Z" fill="white"/>
<path d="M159.782 102.215H155.11C154.882 102.215 154.697 102.407 154.697 102.644C154.697 102.88 154.882 103.072 155.11 103.072H159.782C160.01 103.072 160.195 102.88 160.195 102.644C160.195 102.407 160.01 102.215 159.782 102.215Z" fill="white"/>
<path d="M144.352 104.22H143.6C143.372 104.22 143.188 104.412 143.188 104.648C143.188 104.885 143.372 105.077 143.6 105.077H144.352C144.58 105.077 144.765 104.885 144.765 104.648C144.765 104.412 144.58 104.22 144.352 104.22Z" fill="white"/>
<path d="M152.95 104.22H152.198C151.97 104.22 151.785 104.412 151.785 104.648C151.785 104.885 151.97 105.077 152.198 105.077H152.95C153.178 105.077 153.362 104.885 153.362 104.648C153.362 104.412 153.178 104.22 152.95 104.22Z" fill="white"/>
<path d="M155.386 104.22H154.634C154.406 104.22 154.222 104.412 154.222 104.648C154.222 104.885 154.406 105.077 154.634 105.077H155.386C155.614 105.077 155.799 104.885 155.799 104.648C155.799 104.412 155.614 104.22 155.386 104.22Z" fill="white"/>
<path d="M150.611 104.148H145.939C145.711 104.148 145.526 104.34 145.526 104.577C145.526 104.813 145.711 105.005 145.939 105.005H150.611C150.839 105.005 151.024 104.813 151.024 104.577C151.024 104.34 150.839 104.148 150.611 104.148Z" fill="#04FA55"/>
<path d="M146.072 111.907H145.32C145.092 111.907 144.907 112.099 144.907 112.336C144.907 112.572 145.092 112.764 145.32 112.764H146.072C146.3 112.764 146.484 112.572 146.484 112.336C146.484 112.099 146.3 111.907 146.072 111.907Z" fill="white"/>
<path d="M148.508 111.907H147.756C147.529 111.907 147.344 112.099 147.344 112.336C147.344 112.572 147.529 112.764 147.756 112.764H148.508C148.736 112.764 148.921 112.572 148.921 112.336C148.921 112.099 148.736 111.907 148.508 111.907Z" fill="white"/>
<path d="M155.197 111.979H150.525C150.297 111.979 150.112 112.171 150.112 112.407C150.112 112.644 150.297 112.836 150.525 112.836H155.197C155.425 112.836 155.61 112.644 155.61 112.407C155.61 112.171 155.425 111.979 155.197 111.979Z" fill="white"/>
<path d="M137.474 111.907H136.722C136.494 111.907 136.31 112.099 136.31 112.336C136.31 112.572 136.494 112.764 136.722 112.764H137.474C137.702 112.764 137.887 112.572 137.887 112.336C137.887 112.099 137.702 111.907 137.474 111.907Z" fill="white"/>
<path d="M143.733 111.979H139.061C138.833 111.979 138.648 112.171 138.648 112.407C138.648 112.644 138.833 112.836 139.061 112.836H143.733C143.961 112.836 144.146 112.644 144.146 112.407C144.146 112.171 143.961 111.979 143.733 111.979Z" fill="white"/>
<path d="M139.767 109.974H139.015C138.787 109.974 138.603 110.166 138.603 110.402C138.603 110.639 138.787 110.831 139.015 110.831H139.767C139.995 110.831 140.18 110.639 140.18 110.402C140.18 110.166 139.995 109.974 139.767 109.974Z" fill="white"/>
<path d="M148.365 109.974H147.613C147.385 109.974 147.2 110.166 147.2 110.402C147.2 110.639 147.385 110.831 147.613 110.831H148.365C148.593 110.831 148.777 110.639 148.777 110.402C148.777 110.166 148.593 109.974 148.365 109.974Z" fill="white"/>
<path d="M150.8 109.974H150.048C149.82 109.974 149.636 110.166 149.636 110.402C149.636 110.639 149.82 110.831 150.048 110.831H150.8C151.028 110.831 151.213 110.639 151.213 110.402C151.213 110.166 151.028 109.974 150.8 109.974Z" fill="white"/>
<path d="M146.026 110.045H141.354C141.126 110.045 140.941 110.237 140.941 110.474C140.941 110.71 141.126 110.902 141.354 110.902H146.026C146.254 110.902 146.439 110.71 146.439 110.474C146.439 110.237 146.254 110.045 146.026 110.045Z" fill="white"/>
<path d="M142.06 108.041H141.308C141.08 108.041 140.896 108.233 140.896 108.469C140.896 108.706 141.08 108.898 141.308 108.898H142.06C142.288 108.898 142.473 108.706 142.473 108.469C142.473 108.233 142.288 108.041 142.06 108.041Z" fill="white"/>
<path d="M150.658 108.041H149.906C149.678 108.041 149.493 108.233 149.493 108.469C149.493 108.706 149.678 108.898 149.906 108.898H150.658C150.885 108.898 151.07 108.706 151.07 108.469C151.07 108.233 150.885 108.041 150.658 108.041Z" fill="white"/>
<path d="M153.093 108.041H152.341C152.113 108.041 151.929 108.233 151.929 108.469C151.929 108.706 152.113 108.898 152.341 108.898H153.093C153.321 108.898 153.506 108.706 153.506 108.469C153.506 108.233 153.321 108.041 153.093 108.041Z" fill="white"/>
<path d="M148.318 108.112H143.646C143.418 108.112 143.233 108.304 143.233 108.541C143.233 108.777 143.418 108.969 143.646 108.969H148.318C148.546 108.969 148.731 108.777 148.731 108.541C148.731 108.304 148.546 108.112 148.318 108.112Z" fill="white"/>
<path d="M144.352 106.107H143.6C143.372 106.107 143.188 106.299 143.188 106.536C143.188 106.772 143.372 106.964 143.6 106.964H144.352C144.58 106.964 144.765 106.772 144.765 106.536C144.765 106.299 144.58 106.107 144.352 106.107Z" fill="white"/>
<path d="M152.95 106.107H152.198C151.97 106.107 151.785 106.299 151.785 106.536C151.785 106.772 151.97 106.964 152.198 106.964H152.95C153.178 106.964 153.362 106.772 153.362 106.536C153.362 106.299 153.178 106.107 152.95 106.107Z" fill="white"/>
<path d="M155.386 106.107H154.634C154.406 106.107 154.222 106.299 154.222 106.536C154.222 106.772 154.406 106.964 154.634 106.964H155.386C155.614 106.964 155.799 106.772 155.799 106.536C155.799 106.299 155.614 106.107 155.386 106.107Z" fill="white"/>
<path d="M150.611 106.179H145.939C145.711 106.179 145.526 106.371 145.526 106.607C145.526 106.844 145.711 107.036 145.939 107.036H150.611C150.839 107.036 151.024 106.844 151.024 106.607C151.024 106.371 150.839 106.179 150.611 106.179Z" fill="white"/>
<path d="M133.477 134.564L129.948 128.775L141.025 119.611L145.597 114.354C146.191 113.671 146.948 113.162 147.791 112.877C148.634 112.593 149.534 112.543 150.402 112.732C151.269 112.922 152.073 113.345 152.734 113.958C153.395 114.571 153.889 115.354 154.167 116.227C154.579 117.522 154.491 118.932 153.92 120.16C153.349 121.388 152.341 122.338 151.109 122.809L143.879 125.574L133.477 134.564Z" fill="#FFB6B6"/>
<path d="M50.6738 92.5885V120.726H69.6678V92.5885C69.6681 92.3861 69.6059 92.1889 69.4902 92.026C69.3746 91.863 69.2117 91.7429 69.0254 91.6831C68.9376 91.653 68.8456 91.6382 68.7531 91.6392H51.5911C51.4708 91.639 51.3517 91.6633 51.2404 91.7109C51.1292 91.7585 51.0281 91.8284 50.9429 91.9165C50.8577 92.0047 50.7901 92.1094 50.7439 92.2247C50.6978 92.34 50.6739 92.4636 50.6738 92.5885ZM58.0864 102.257C58.0913 101.702 58.3071 101.172 58.6868 100.781C59.0665 100.391 59.5794 100.172 60.114 100.172C60.6485 100.172 61.1614 100.391 61.5411 100.781C61.9208 101.172 62.1366 101.702 62.1416 102.257V105.521C62.1388 106.078 61.924 106.61 61.544 107.002C61.1641 107.395 60.6499 107.615 60.114 107.615C59.578 107.615 59.0638 107.395 58.6839 107.002C58.3039 106.61 58.0891 106.078 58.0864 105.521V102.257Z" fill="#2F2E41"/>
<path d="M50.6162 119.826V122.539C50.6166 122.68 50.6704 122.815 50.766 122.914C50.8615 123.014 50.991 123.071 51.1264 123.072H69.2163C69.3518 123.071 69.4816 123.015 69.5772 122.915C69.6728 122.815 69.7265 122.68 69.7265 122.539V119.826H50.6162Z" fill="#3F3D56"/>
<path d="M20.7939 50.1954V101.571C20.7944 102.225 21.0453 102.853 21.4913 103.316C21.9374 103.779 22.5423 104.039 23.1731 104.04H96.5317C97.1626 104.039 97.7674 103.779 98.2135 103.316C98.6596 102.853 98.9104 102.225 98.9109 101.571V50.1954C98.9094 49.5413 98.6582 48.9144 98.2123 48.4521C97.7663 47.9899 97.162 47.7298 96.5317 47.729H23.1731C22.5428 47.7298 21.9385 47.9899 21.4926 48.4522C21.0467 48.9144 20.7954 49.5413 20.7939 50.1954Z" fill="#3F3D56"/>
<path d="M22.5146 50.8351V100.937C22.5152 101.287 22.6494 101.622 22.8877 101.87C23.126 102.117 23.4491 102.256 23.7862 102.257H95.9208C96.2579 102.256 96.581 102.117 96.8193 101.87C97.0576 101.622 97.1918 101.287 97.1924 100.937V50.8351C97.1923 50.4848 97.0584 50.1489 96.8201 49.901C96.5817 49.6531 96.2583 49.5135 95.9208 49.5127H23.7862C23.4487 49.5135 23.1253 49.6531 22.887 49.901C22.6486 50.1489 22.5147 50.4848 22.5146 50.8351Z" fill="white"/>
<path d="M35.9022 122.888C35.9756 122.983 36.0689 123.06 36.1751 123.113C36.2814 123.166 36.3977 123.193 36.5155 123.192H79.4309C79.5483 123.192 79.6641 123.165 79.77 123.112C79.876 123.06 79.9693 122.984 80.0432 122.889C80.1172 122.794 80.1698 122.684 80.1975 122.566C80.2251 122.447 80.2269 122.324 80.2028 122.205L79.5366 118.921C79.509 118.787 79.4496 118.662 79.3637 118.558C79.2778 118.454 79.1682 118.374 79.0449 118.325C78.9557 118.289 78.8606 118.27 78.7647 118.271H37.179C37.0831 118.27 36.9881 118.289 36.8988 118.325C36.7755 118.374 36.6659 118.454 36.58 118.558C36.4941 118.662 36.4347 118.787 36.4071 118.921L35.7409 122.205C35.7172 122.324 35.7194 122.447 35.7473 122.565C35.7752 122.683 35.8281 122.794 35.9022 122.888Z" fill="#2F2E41"/>
<path d="M93.5799 56.4145H26.0838C26.0136 56.4129 25.9469 56.3829 25.8978 56.3308C25.8488 56.2787 25.8213 56.2088 25.8213 56.136C25.8213 56.0632 25.8488 55.9932 25.8978 55.9412C25.9469 55.8891 26.0136 55.859 26.0838 55.8574H93.5799C93.65 55.859 93.7168 55.8891 93.7659 55.9412C93.8149 55.9932 93.8424 56.0632 93.8424 56.136C93.8424 56.2088 93.8149 56.2787 93.7659 56.3308C93.7168 56.3829 93.65 56.4129 93.5799 56.4145Z" fill="#3F3D56"/>
<path d="M30.6785 54.435C31.5473 54.435 32.2515 53.6878 32.2515 52.7661C32.2515 51.8444 31.5473 51.0972 30.6785 51.0972C29.8097 51.0972 29.1055 51.8444 29.1055 52.7661C29.1055 53.6878 29.8097 54.435 30.6785 54.435Z" fill="#3F3D56"/>
<path d="M36.1131 54.435C36.9818 54.435 37.6861 53.6878 37.6861 52.7661C37.6861 51.8444 36.9818 51.0972 36.1131 51.0972C35.2443 51.0972 34.54 51.8444 34.54 52.7661C34.54 53.6878 35.2443 54.435 36.1131 54.435Z" fill="#3F3D56"/>
<path d="M41.5467 54.435C42.4154 54.435 43.1197 53.6878 43.1197 52.7661C43.1197 51.8444 42.4154 51.0972 41.5467 51.0972C40.6779 51.0972 39.9736 51.8444 39.9736 52.7661C39.9736 53.6878 40.6779 54.435 41.5467 54.435Z" fill="#3F3D56"/>
<path d="M90.3081 51.5098H86.4485C86.3722 51.5116 86.2996 51.5444 86.2463 51.601C86.1929 51.6577 86.1631 51.7337 86.1631 51.8129C86.1631 51.8921 86.1929 51.9682 86.2463 52.0248C86.2996 52.0815 86.3722 52.1142 86.4485 52.1161H90.3081C90.3848 52.115 90.4581 52.0825 90.512 52.0258C90.5659 51.9691 90.5961 51.8926 90.5961 51.8129C90.5961 51.7332 90.5659 51.6568 90.512 51.6001C90.4581 51.5433 90.3848 51.5109 90.3081 51.5098Z" fill="#3F3D56"/>
<path d="M90.3084 52.6484H86.4488C86.3725 52.6502 86.2998 52.6829 86.2464 52.7396C86.193 52.7962 86.1631 52.8723 86.1631 52.9516C86.1631 53.0309 86.193 53.107 86.2464 53.1636C86.2998 53.2203 86.3725 53.253 86.4488 53.2548H90.3084C90.3853 53.2538 90.4587 53.2214 90.5127 53.1647C90.5667 53.1079 90.597 53.0314 90.597 52.9516C90.597 52.8718 90.5667 52.7953 90.5127 52.7385C90.4587 52.6818 90.3853 52.6494 90.3084 52.6484Z" fill="#3F3D56"/>
<path d="M90.3081 53.7871H86.4485C86.3722 53.789 86.2996 53.8217 86.2463 53.8784C86.1929 53.935 86.1631 54.0111 86.1631 54.0903C86.1631 54.1695 86.1929 54.2455 86.2463 54.3022C86.2996 54.3588 86.3722 54.3916 86.4485 54.3934H90.3081C90.3848 54.3923 90.4581 54.3599 90.512 54.3031C90.5659 54.2464 90.5961 54.1699 90.5961 54.0903C90.5961 54.0106 90.5659 53.9341 90.512 53.8774C90.4581 53.8207 90.3848 53.7882 90.3081 53.7871Z" fill="#3F3D56"/>
<path d="M183.355 121.017C183.472 121.369 183.693 121.673 183.986 121.887C184.28 122.1 184.631 122.212 184.99 122.205L191.993 122.018C192.354 122.011 192.703 121.882 192.988 121.652C193.273 121.422 193.479 121.102 193.574 120.74L194.565 109.742C194.917 109.908 195.3 109.989 195.686 109.981C196.021 109.973 196.351 109.895 196.658 109.754C196.964 109.613 197.241 109.41 197.472 109.158C197.703 108.906 197.884 108.609 198.005 108.284C198.125 107.959 198.183 107.613 198.175 107.265C198.166 106.917 198.092 106.574 197.956 106.256C197.82 105.938 197.625 105.651 197.382 105.411C197.139 105.171 196.852 104.983 196.539 104.858C196.226 104.733 195.893 104.673 195.557 104.682C195.403 104.681 195.249 104.698 195.098 104.731C194.934 104.547 194.735 104.401 194.513 104.301C194.291 104.202 194.052 104.152 193.81 104.154L183.037 104.443C182.948 104.447 182.859 104.458 182.772 104.477C182.535 104.523 182.311 104.621 182.115 104.764C181.918 104.907 181.753 105.092 181.631 105.307C181.509 105.522 181.432 105.761 181.407 106.009C181.381 106.257 181.408 106.508 181.483 106.745L183.355 121.017ZM194.769 108.996L195.474 106.375C195.554 106.072 195.556 105.753 195.479 105.449C195.513 105.449 195.544 105.432 195.578 105.432C196.061 105.422 196.529 105.611 196.878 105.958C197.228 106.305 197.431 106.781 197.442 107.283C197.453 107.785 197.272 108.271 196.939 108.635C196.605 108.998 196.147 109.21 195.663 109.223C195.351 109.233 195.041 109.154 194.769 108.996Z" fill="#2F2E41"/>
<path d="M182.771 104.477C183.001 105.839 185.581 106.796 188.684 106.63C191.537 106.494 193.87 105.454 194.297 104.222C194.139 104.173 193.975 104.15 193.81 104.154L183.037 104.443C182.948 104.446 182.859 104.458 182.771 104.477Z" fill="#3F3D56"/>
<path d="M189.253 114.973C189.267 114.97 189.281 114.963 189.293 114.955L190.814 113.922C190.832 113.91 190.848 113.893 190.858 113.872C190.868 113.852 190.874 113.83 190.874 113.807C190.874 113.784 190.868 113.762 190.858 113.742C190.848 113.722 190.832 113.705 190.814 113.693L189.233 112.618C189.219 112.608 189.203 112.601 189.185 112.598C189.168 112.594 189.151 112.594 189.134 112.598C189.117 112.602 189.101 112.609 189.086 112.619C189.072 112.629 189.059 112.642 189.05 112.657C189.04 112.672 189.034 112.689 189.031 112.707C189.027 112.725 189.028 112.743 189.031 112.761C189.035 112.778 189.042 112.795 189.051 112.81C189.061 112.825 189.074 112.837 189.088 112.847L190.5 113.807L189.148 114.726C189.122 114.743 189.103 114.77 189.094 114.801C189.085 114.832 189.087 114.866 189.1 114.895C189.112 114.925 189.135 114.949 189.163 114.964C189.191 114.978 189.223 114.981 189.253 114.973Z" fill="#04FA55"/>
<path d="M186.851 115.089C186.876 115.082 186.9 115.067 186.917 115.047C186.935 115.027 186.946 115.001 186.949 114.974C186.953 114.947 186.949 114.92 186.937 114.895C186.926 114.871 186.907 114.85 186.884 114.837L185.482 114.003L186.837 112.958C186.851 112.947 186.863 112.934 186.872 112.918C186.881 112.903 186.887 112.886 186.889 112.868C186.892 112.85 186.891 112.832 186.887 112.815C186.882 112.797 186.875 112.781 186.865 112.766C186.854 112.752 186.841 112.74 186.826 112.73C186.812 112.721 186.795 112.715 186.778 112.712C186.761 112.71 186.743 112.711 186.726 112.715C186.71 112.719 186.694 112.727 186.68 112.738L185.163 113.907C185.145 113.921 185.131 113.939 185.122 113.96C185.113 113.98 185.108 114.003 185.11 114.026C185.111 114.048 185.118 114.07 185.129 114.09C185.141 114.109 185.157 114.125 185.176 114.136L186.753 115.075C186.783 115.092 186.818 115.097 186.851 115.089Z" fill="#04FA55"/>
<path d="M189.102 115.879C189.115 115.875 189.127 115.87 189.138 115.863C189.153 115.854 189.166 115.841 189.176 115.827C189.186 115.812 189.194 115.796 189.198 115.778C189.202 115.761 189.203 115.743 189.2 115.725C189.197 115.707 189.191 115.69 189.182 115.674L187.026 111.996C187.008 111.965 186.979 111.943 186.945 111.934C186.911 111.925 186.875 111.931 186.845 111.95C186.815 111.969 186.793 112 186.785 112.035C186.777 112.07 186.782 112.108 186.8 112.139L188.956 115.817C188.971 115.842 188.993 115.862 189.019 115.873C189.045 115.884 189.074 115.886 189.102 115.879Z" fill="#04FA55"/>
<path d="M67.8965 71.5586H56.2145C55.7379 71.5586 55.3516 71.9595 55.3516 72.4541V73.6386C55.3516 74.1332 55.7379 74.5341 56.2145 74.5341H67.8965C68.3731 74.5341 68.7594 74.1332 68.7594 73.6386V72.4541C68.7594 71.9595 68.3731 71.5586 67.8965 71.5586Z" fill="#04FA55"/>
<path d="M74.7068 77.5093H49.4059C48.9293 77.5093 48.543 77.9102 48.543 78.4048V79.5893C48.543 80.0839 48.9293 80.4848 49.4059 80.4848H74.7068C75.1833 80.4848 75.5697 80.0839 75.5697 79.5893V78.4048C75.5697 77.9102 75.1833 77.5093 74.7068 77.5093Z" fill="#E6E6E6"/>
<path d="M74.7068 83.4604H49.4059C48.9293 83.4604 48.543 83.8614 48.543 84.356V85.5405C48.543 86.035 48.9293 86.436 49.4059 86.436H74.7068C75.1833 86.436 75.5697 86.035 75.5697 85.5405V84.356C75.5697 83.8614 75.1833 83.4604 74.7068 83.4604Z" fill="#E6E6E6"/>
<path d="M76.8506 103.388L76.9079 103.576L76.9109 103.582L78.6359 109.025L80.6202 115.297L84.3536 127.083L84.3898 128.914V128.92L84.6672 143.649L83.8982 145.646L84.7637 148.919C84.7637 148.919 84.3656 143.971 82.2306 146.813C81.0213 148.428 79.6069 150.08 78.4459 151.629C80.1377 152.34 81.8566 152.982 83.6027 153.557C83.9797 153.682 84.3596 153.801 84.7396 153.92C84.821 153.945 84.9024 153.97 84.9839 153.995C90.7719 155.772 96.7556 156.77 102.788 156.965C103.102 156.975 103.41 156.981 103.708 156.987C103.814 156.99 103.916 156.994 104.019 156.994C104.357 156.997 104.691 157 105.029 157C105.711 157 106.389 156.989 107.065 156.969C112.064 156.822 117.035 156.125 121.893 154.887C121.86 152.806 121.769 150.374 121.639 147.777C121.579 146.503 120.225 145.123 120.144 143.789C120.086 142.788 121.302 141.846 121.238 140.829C120.828 134.566 120.316 136.97 119.936 132.535C119.896 132.1 119.86 131.684 119.827 131.287C119.583 128.438 119.414 126.658 119.414 126.658L121.036 116.045L123.585 99.3822L123.389 99.0473L123.168 98.9347L109.727 92.0305L108.998 90.0901C108.785 89.531 108.416 89.0508 107.938 88.7112C107.461 88.3715 106.896 88.1879 106.317 88.1841L97.4627 88.1465C97.0032 88.1444 96.5499 88.256 96.1403 88.472C95.7307 88.6881 95.3766 89.0025 95.1075 89.389L92.71 92.8348L76.8506 103.388Z" fill="#209183"/>
<path d="M86.3954 124.461L84.39 128.914L83.0209 131.956L80.6657 144.754L79.4865 146.053L78.4763 141.455L67.9027 143.891C67.5559 141.891 67.8098 143.959 67.5957 141.765C67.656 141.702 67.7193 141.64 67.7827 141.577C67.9516 141.414 68.0933 141.261 68.0903 141.114C67.9696 133.546 68.3315 120.667 71.3532 112.865C71.8265 111.591 72.4505 110.383 73.2109 109.269C73.2712 109.185 73.3285 109.1 73.3858 109.016C74.7791 106.991 75.6596 104.997 76.9081 103.579V103.576C76.9159 103.57 76.923 103.562 76.9292 103.554C76.9338 103.552 76.9379 103.549 76.9413 103.545L85.5179 98.8252L85.8858 109.554L86.1482 117.265L86.3954 124.461Z" fill="#209183"/>
<path d="M117.321 125.726L119.826 131.288L120.701 133.225L123.055 146.022L124.23 147.317L125.243 142.72L125.719 142.619L134.299 140.775L136.8 149.018C137.364 148.043 137.586 146.896 137.429 145.771C137.272 144.646 136.745 143.612 135.938 142.844C135.767 142.683 135.625 142.527 135.629 142.379C135.772 133.479 135.247 117.226 130.509 110.536C129.005 108.414 128.102 106.299 126.788 104.822C126.784 104.818 126.784 104.814 126.78 104.814L123.584 99.3819L123.389 99.0485L123.169 98.9346L117.321 125.726Z" fill="#209183"/>
<path d="M102.146 85.5318C108.652 85.5318 113.926 80.0586 113.926 73.3072C113.926 66.5557 108.652 61.0825 102.146 61.0825C95.6409 61.0825 90.3672 66.5557 90.3672 73.3072C90.3672 80.0586 95.6409 85.5318 102.146 85.5318Z" fill="#FFB6B6"/>
<path d="M118.066 64.7683C117.975 64.6671 117.865 64.586 117.743 64.5299C117.621 64.4738 117.489 64.4439 117.355 64.4419L117.532 63.9316C117.59 63.7708 117.606 63.597 117.578 63.428C117.549 63.2589 117.478 63.1007 117.372 62.9695C117.265 62.8383 117.127 62.7388 116.971 62.6813C116.816 62.6238 116.648 62.6102 116.486 62.6421L115.841 62.771L115.901 62.3239C115.925 62.1573 115.906 61.9873 115.847 61.8306C115.787 61.6739 115.69 61.5359 115.564 61.4302C115.438 61.3244 115.287 61.2546 115.127 61.2275C114.967 61.2005 114.803 61.2171 114.651 61.2758C114.513 61.3323 114.364 61.356 114.216 61.345C114.068 61.3341 113.924 61.2889 113.794 61.2127C113.665 61.1389 113.552 61.0365 113.465 60.9129C113.377 60.7892 113.316 60.6472 113.287 60.4967L113.062 59.3718L113.038 59.3115C111.944 57.4184 109.84 56.0412 107.265 55.5364C104.973 55.0837 102.623 55.3142 100.357 55.5309C99.4585 55.6187 98.4434 55.7174 97.5974 56.2552C96.8784 56.7161 96.2704 57.6379 96.3946 58.568C94.1608 57.8574 91.7658 59.2758 90.5788 61.0646C89.1724 63.1935 88.9425 65.8602 88.9054 67.9453C88.805 72.8782 89.7857 76.9139 91.8133 79.9427C91.9614 80.1622 91.9984 80.6204 92.2918 80.774L92.231 80.6725C92.5588 80.8426 92.8919 81.1169 92.7677 81.4105C92.4108 82.2555 94.7821 84.1238 96.4528 84.7411C99.5008 85.8687 103.553 85.7727 106.403 85.3667L106.504 84.6671C107.532 84.5217 108.256 84.2446 108.46 83.8111C108.819 83.4928 109.126 83.2075 109.393 82.9441L109.396 82.9414C109.401 82.9359 109.411 82.9277 109.417 82.9222C110.704 81.641 111.003 80.9112 111.138 79.8001C111.267 78.7109 111.037 77.6053 110.802 76.6094C115.756 77.405 108.851 71.1333 113.467 69.9207C113.52 69.9037 113.573 69.89 113.628 69.8795C113.763 69.8466 113.898 69.8137 114.027 69.7753C114.652 69.5994 115.249 69.3344 115.804 68.9879C117.094 68.173 117.519 67.0921 118.185 65.874C118.282 65.7005 118.322 65.4998 118.3 65.3009C118.279 65.1021 118.197 64.9155 118.066 64.7683Z" fill="#3C3B3B"/>
<path d="M143.808 126.596C143.805 127.076 143.8 127.748 143.779 128.58C143.776 128.695 143.773 128.813 143.771 128.933C143.736 130.462 143.702 131.743 143.646 133.167C143.644 133.265 143.641 133.362 143.636 133.46C143.562 135.447 143.445 137.759 143.245 141.422C142.872 148.188 142.221 142.352 141.569 144.725C141.537 144.843 141.502 144.983 141.471 145.148C141.372 145.745 141.205 146.328 140.974 146.884C140.627 147.098 140.271 147.304 139.919 147.51C138.917 148.089 137.899 148.646 136.874 149.175C136.297 149.471 135.718 149.762 135.137 150.042C135.044 150.086 134.954 150.13 134.864 150.171C131.886 151.601 128.817 152.816 125.678 153.809C125.065 154.001 124.454 154.188 123.836 154.36C123.191 154.547 122.546 154.723 121.893 154.887C117.035 156.125 112.065 156.823 107.065 156.97C106.391 156.991 105.711 157 105.029 157C104.691 157 104.358 156.997 104.02 156.994C103.916 156.994 103.813 156.991 103.71 156.989C103.412 156.98 103.102 156.975 102.79 156.967C96.7574 156.771 90.7737 155.773 84.9859 153.996L84.7401 153.921C84.3594 153.801 83.9814 153.683 83.6034 153.557C81.8586 152.983 80.1394 152.341 78.4458 151.631C77.1531 151.09 75.8754 150.51 74.6126 149.891C74.6011 149.888 74.5903 149.882 74.5809 149.875C74.3166 149.749 74.0496 149.617 73.7852 149.482C73.7509 149.463 73.7138 149.444 73.6768 149.425C72.6908 148.926 71.7153 148.402 70.7504 147.856C69.9388 145.921 68.7968 145.551 68.0884 143.85C67.8822 143.345 67.7331 142.816 67.6442 142.275C67.6442 142.27 67.6416 142.264 67.6416 142.256C67.7156 143.277 67.327 140.445 67.639 142.245C67.6363 142.212 67.6337 142.176 67.631 142.135C67.6231 142.037 67.6125 141.916 67.5967 141.765C66.6899 132.577 66.7481 122.069 66.3542 113.411C66.3278 112.851 66.3004 112.315 66.2723 111.803C66.2643 111.633 66.2538 111.466 66.2432 111.301C66.2617 111.252 66.2828 111.199 66.3066 111.15C66.3117 111.136 66.3179 111.122 66.3251 111.109C66.3329 111.092 66.3417 111.075 66.3516 111.059C66.3568 111.051 66.3648 111.04 66.3701 111.032C66.3739 111.023 66.3783 111.013 66.3833 111.005C66.4071 110.966 66.4335 110.925 66.4626 110.887C66.4758 110.87 66.4864 110.856 66.4996 110.843C66.5087 110.829 66.5194 110.816 66.5313 110.804C66.5394 110.791 66.5492 110.779 66.5604 110.769C66.571 110.758 66.5815 110.744 66.5948 110.73C66.6004 110.722 66.6076 110.714 66.6159 110.708C66.6368 110.683 66.6598 110.66 66.6846 110.64C66.779 110.55 66.8797 110.467 66.986 110.393C67.023 110.368 67.0627 110.343 67.0997 110.316C67.3661 110.151 67.6466 110.011 67.9377 109.899C68.0381 109.861 68.1386 109.825 68.247 109.786C68.2866 109.776 68.3236 109.762 68.3633 109.748C68.4214 109.729 68.4796 109.71 68.5404 109.696C68.8418 109.603 69.1669 109.523 69.5185 109.449C69.5608 109.441 69.6058 109.433 69.6507 109.422C69.7141 109.408 69.7802 109.397 69.8463 109.386C69.9362 109.369 70.0287 109.353 70.1213 109.337C70.9064 109.208 71.7973 109.112 72.7807 109.048C72.8732 109.043 72.9657 109.038 73.0582 109.032C73.1666 109.027 73.275 109.021 73.386 109.016C73.4786 109.01 73.5737 109.007 73.6689 109.005C73.7614 108.999 73.8566 108.996 73.9544 108.994C74.2214 108.985 74.4963 108.977 74.7766 108.972C75.5749 108.955 76.4156 108.961 77.2985 108.98C77.7083 108.991 78.1259 109.002 78.5542 109.021C78.5833 109.021 78.6097 109.024 78.6361 109.024C79.0089 109.038 79.3843 109.054 79.7702 109.076C80.0399 109.09 80.3121 109.103 80.5844 109.12C80.8408 109.136 81.0999 109.153 81.3616 109.172C81.5652 109.183 81.7687 109.199 81.9749 109.213C82.1494 109.227 82.3239 109.241 82.4984 109.252L82.7363 109.268C82.8658 109.279 82.9953 109.287 83.1275 109.301C83.4183 109.326 83.7091 109.35 84.0052 109.375C84.2986 109.402 84.5973 109.43 84.8961 109.457C85.1948 109.485 85.4961 109.515 85.7975 109.545C85.8292 109.548 85.8583 109.551 85.8874 109.553C86.1623 109.583 86.4373 109.611 86.7148 109.641C86.7783 109.647 86.8444 109.652 86.9078 109.66C87.1724 109.688 87.4423 109.72 87.7093 109.75C87.7913 109.759 87.8728 109.768 87.955 109.777C88.1642 109.801 88.3705 109.821 88.5811 109.847C88.8587 109.88 89.1416 109.91 89.4165 109.948C89.6306 109.973 89.8448 109.998 90.0589 110.025C90.3946 110.066 90.7356 110.11 91.0767 110.157C91.2062 110.173 91.3357 110.19 91.4653 110.209C92.4381 110.335 93.4215 110.475 94.4208 110.621C95.9355 110.843 97.4741 111.084 99.0232 111.345C100.575 111.605 102.136 111.881 103.705 112.171C104.101 112.245 104.498 112.319 104.897 112.396C105.077 112.431 105.257 112.467 105.436 112.503C105.743 112.56 106.05 112.621 106.356 112.681C106.663 112.741 106.97 112.802 107.276 112.865C107.641 112.939 108.009 113.013 108.373 113.087C110.776 113.581 113.166 114.108 115.498 114.659C115.881 114.749 116.264 114.843 116.645 114.933C117.406 115.117 118.161 115.304 118.908 115.493C119.114 115.542 119.318 115.595 119.521 115.647C120.029 115.778 120.536 115.91 121.036 116.044L121.123 116.069C121.491 116.162 121.85 116.258 122.21 116.357C123.058 116.588 123.893 116.821 124.713 117.057C125.258 117.213 125.796 117.371 126.328 117.531C127.124 117.77 127.904 118.012 128.663 118.256C128.85 118.316 129.038 118.376 129.223 118.434C129.778 118.612 130.325 118.793 130.857 118.975C131.28 119.117 131.692 119.263 132.099 119.408C132.506 119.553 132.906 119.699 133.297 119.844C133.548 119.937 133.796 120.036 134.045 120.13C134.402 120.267 134.753 120.404 135.097 120.541C135.203 120.582 135.306 120.626 135.409 120.667C135.475 120.697 135.539 120.722 135.602 120.75C135.726 120.802 135.853 120.851 135.975 120.903C136.099 120.953 136.221 121.005 136.342 121.06C136.461 121.109 136.583 121.161 136.699 121.213C136.818 121.263 136.934 121.315 137.051 121.37C137.148 121.411 137.244 121.455 137.336 121.499C137.524 121.584 137.712 121.669 137.894 121.756C137.984 121.8 138.074 121.841 138.164 121.885L138.37 121.984C138.399 122.001 138.428 122.014 138.457 122.028C138.523 122.061 138.592 122.097 138.658 122.13C138.811 122.204 138.962 122.283 139.11 122.357C139.308 122.462 139.501 122.566 139.686 122.667C139.874 122.772 140.056 122.876 140.231 122.977C140.26 122.994 140.286 123.01 140.315 123.027C140.355 123.049 140.395 123.073 140.434 123.095C140.569 123.175 140.699 123.257 140.828 123.337C141.082 123.499 141.323 123.658 141.547 123.817C141.598 123.852 141.645 123.888 141.695 123.921C141.862 124.045 142.021 124.165 142.169 124.289C142.169 124.291 142.169 124.291 142.171 124.291C142.221 124.33 142.269 124.371 142.317 124.409C142.356 124.448 142.399 124.481 142.438 124.519C142.576 124.643 142.703 124.761 142.819 124.881C142.858 124.919 142.895 124.958 142.93 124.999C142.945 125.012 142.959 125.027 142.972 125.043C143.025 125.098 143.073 125.153 143.118 125.208C143.125 125.215 143.131 125.224 143.136 125.232C143.2 125.309 143.258 125.386 143.313 125.463C143.34 125.501 143.369 125.54 143.393 125.578C143.424 125.625 143.456 125.674 143.482 125.721C143.506 125.759 143.527 125.8 143.549 125.839C143.605 125.938 143.652 126.041 143.691 126.149C143.721 126.222 143.745 126.297 143.763 126.374C143.783 126.447 143.798 126.521 143.808 126.596Z" fill="#2F2E41"/>
<path opacity="0.2" d="M143.807 126.596C143.805 127.076 143.799 127.748 143.778 128.579C143.776 128.695 143.77 128.813 143.768 128.933C143.741 130.099 143.702 131.54 143.646 133.167C143.643 133.265 143.641 133.361 143.636 133.46C143.562 135.446 143.445 137.759 143.244 141.422C142.872 148.187 142.221 142.352 141.568 144.725C139.755 143.567 137.767 142.355 135.641 141.109C135.258 140.884 134.871 140.658 134.481 140.431C130.23 137.97 125.482 135.392 120.526 132.837C120.33 132.736 120.132 132.634 119.936 132.536C108.582 126.711 96.1891 121.046 86.1488 117.265C84.2111 116.535 82.3606 115.877 80.6212 115.298C76.9572 114.083 73.7902 113.232 71.3529 112.865C68.8151 112.48 67.0624 112.618 66.3539 113.411C66.3275 112.851 66.3001 112.315 66.272 111.803C66.2614 111.633 66.2508 111.465 66.2402 111.301C66.2565 111.256 66.2777 111.212 66.2983 111.169C66.3012 111.163 66.3033 111.156 66.3063 111.15C66.3114 111.136 66.3176 111.122 66.3248 111.109C66.3326 111.092 66.3415 111.075 66.3513 111.059C66.3599 111.04 66.3705 111.021 66.383 111.004C66.4068 110.966 66.4332 110.925 66.4623 110.886C66.4837 110.858 66.5066 110.83 66.531 110.804C66.5391 110.791 66.5489 110.779 66.5601 110.768C66.5707 110.757 66.5813 110.744 66.5945 110.73C66.6001 110.721 66.6073 110.714 66.6156 110.708C66.6365 110.683 66.6595 110.66 66.6844 110.64C66.7787 110.549 66.8794 110.467 66.9857 110.393C67.0227 110.368 67.0624 110.343 67.0994 110.316C67.3658 110.15 67.6463 110.011 67.9374 109.899C68.0379 109.86 68.1383 109.825 68.2467 109.786C68.2863 109.775 68.3234 109.762 68.363 109.748C68.4212 109.729 68.4793 109.709 68.5401 109.696C68.8415 109.603 69.1666 109.523 69.5182 109.449C69.624 109.427 69.735 109.405 69.846 109.386C69.9359 109.369 70.0285 109.353 70.121 109.336C70.9061 109.207 71.797 109.111 72.7804 109.048C72.8729 109.043 72.9654 109.037 73.058 109.032C73.1663 109.026 73.2747 109.021 73.3858 109.015C73.4783 109.01 73.5735 109.007 73.6686 109.004C73.7611 108.999 73.8563 108.996 73.9541 108.993C74.2211 108.985 74.4961 108.977 74.7763 108.971C75.5746 108.958 76.4153 108.963 77.2982 108.982C77.708 108.991 78.1257 109.004 78.5539 109.024C78.5803 109.024 78.6094 109.026 78.6359 109.026C79.0086 109.037 79.3866 109.057 79.7699 109.076C80.0396 109.089 80.3119 109.103 80.5841 109.12C80.8406 109.136 81.0996 109.153 81.3614 109.172C81.5649 109.183 81.7684 109.199 81.9746 109.213C82.1491 109.227 82.3236 109.24 82.4981 109.251C82.7069 109.268 82.9158 109.284 83.1272 109.301C83.418 109.325 83.7088 109.35 84.0049 109.375C84.2983 109.402 84.5971 109.43 84.8958 109.457C85.1945 109.485 85.4959 109.515 85.7972 109.545C85.8289 109.548 85.858 109.55 85.8871 109.553C86.162 109.583 86.437 109.611 86.7145 109.641C88.2531 109.803 89.8366 109.992 91.465 110.209C92.4378 110.338 93.423 110.476 94.4205 110.623C95.9352 110.845 97.4738 111.087 99.0229 111.345C100.575 111.605 102.135 111.881 103.705 112.17C104.101 112.244 104.498 112.319 104.897 112.395C105.383 112.489 105.87 112.584 106.356 112.681C106.663 112.741 106.969 112.801 107.276 112.865C107.641 112.939 108.008 113.013 108.373 113.087C110.776 113.581 113.166 114.107 115.498 114.659C115.881 114.749 116.264 114.843 116.645 114.933C117.406 115.117 118.16 115.304 118.908 115.493C119.114 115.545 119.317 115.597 119.521 115.649C120.031 115.781 120.536 115.913 121.036 116.044V116.047C121.065 116.053 121.094 116.061 121.123 116.069C121.488 116.165 121.85 116.261 122.21 116.36C123.058 116.59 123.893 116.823 124.713 117.057C125.258 117.216 125.797 117.372 126.328 117.531C127.124 117.773 127.904 118.014 128.662 118.256C128.85 118.316 129.038 118.376 129.223 118.434C129.778 118.615 130.323 118.795 130.857 118.974C131.28 119.117 131.692 119.262 132.099 119.408C132.506 119.553 132.905 119.699 133.297 119.844C133.55 119.937 133.799 120.033 134.045 120.127C134.404 120.264 134.753 120.401 135.097 120.541C135.203 120.582 135.306 120.626 135.409 120.667C135.602 120.744 135.789 120.823 135.974 120.903C136.099 120.952 136.22 121.005 136.342 121.059C136.461 121.109 136.583 121.161 136.699 121.213C136.818 121.262 136.934 121.315 137.05 121.369C137.148 121.411 137.243 121.454 137.336 121.498C137.524 121.583 137.711 121.668 137.894 121.756C137.984 121.8 138.073 121.841 138.163 121.885L138.37 121.984C138.399 122 138.428 122.014 138.457 122.028C138.681 122.138 138.898 122.247 139.11 122.357C139.308 122.461 139.501 122.566 139.686 122.667C139.905 122.788 140.114 122.906 140.315 123.027C140.355 123.048 140.395 123.073 140.434 123.095C140.569 123.175 140.699 123.257 140.828 123.337C141.082 123.498 141.322 123.658 141.547 123.817C141.769 123.976 141.975 124.132 142.168 124.289C142.168 124.291 142.168 124.291 142.171 124.291C142.264 124.368 142.353 124.445 142.438 124.519C142.575 124.642 142.702 124.76 142.819 124.881C142.858 124.918 142.895 124.958 142.93 124.999C142.945 125.012 142.959 125.027 142.972 125.043C143.028 125.106 143.083 125.169 143.136 125.232C143.199 125.309 143.258 125.386 143.313 125.463C143.339 125.501 143.369 125.54 143.392 125.578C143.424 125.625 143.456 125.674 143.482 125.721C143.506 125.759 143.527 125.8 143.548 125.839C143.604 125.938 143.652 126.041 143.691 126.149C143.72 126.222 143.744 126.297 143.762 126.374C143.782 126.447 143.797 126.521 143.807 126.596Z" fill="black"/>
</g>
<defs>
<clipPath id="clip0_155_2">
<rect width="208" height="157" fill="white"/>
</clipPath>
</defs>
</svg>
