<svg width="619" height="463" viewBox="0 0 619 463" fill="none" xmlns="http://www.w3.org/2000/svg">
<g clip-path="url(#clip0_155_107)">
<path d="M360.566 81.6214C372.167 81.6214 381.572 71.9494 381.572 60.0185C381.572 48.0875 372.167 38.4155 360.566 38.4155C348.965 38.4155 339.561 48.0875 339.561 60.0185C339.561 71.9494 348.965 81.6214 360.566 81.6214Z" fill="#F2F2F2"/>
<path d="M523.515 402.234C554.738 377.776 569.65 336.678 560.314 297.473C560.082 296.499 559.838 295.527 559.58 294.557C553.39 271.285 538.078 249.167 515.76 241.731C497.021 235.488 476.566 240.289 457.017 237.806C418.64 232.932 388.887 200.998 367.952 167.563C347.017 134.127 330.928 96.7012 303.11 69.0787C257.257 23.5476 182.459 13.7448 125.607 43.3821C68.756 73.0195 32.5422 138.772 34.0866 204.303C35.6311 269.835 73.4586 332.487 128.394 365.728C148.574 377.939 171.915 386.59 195.145 383.563C215.3 380.936 233.614 369.798 253.675 366.492C285.215 361.293 316.554 375.959 343.834 393.049C371.114 410.139 397.464 430.396 428.464 438.318C458.565 446.012 495.857 423.899 523.515 402.234Z" fill="#F2F2F2"/>
<path d="M478.655 44.7581C477.971 44.2888 477.279 43.8438 476.594 43.3907C456.809 30.3774 435.603 19.8055 413.413 11.8934L408.268 84.8882H375.651V1.23789C373.598 0.800984 371.529 0.388356 369.46 0V84.8882H330.699C309.36 84.8882 288.896 76.1706 273.807 60.6531C258.718 45.1355 250.242 24.0892 250.242 2.14415C248.165 2.60532 246.104 3.09878 244.042 3.62468V84.8883H212.472L207.571 15.2835C184.767 24.2774 163.119 36.1048 143.107 50.5025C142.761 50.7453 142.415 50.9961 142.077 51.2388C140.338 52.4929 138.623 53.7712 136.916 55.0657V333.542H229.96L228.316 310.119L219.269 181.516H401.463L392.416 310.119L390.772 333.542H482.786V47.5737C481.417 46.619 480.04 45.6805 478.655 44.7581ZM244.043 160.278H217.774L212.92 91.2638H244.043V160.278ZM369.46 160.278H325.341V158.911C325.341 158.253 325.215 157.602 324.97 156.995C324.726 156.388 324.367 155.837 323.914 155.372C323.462 154.908 322.925 154.54 322.334 154.289C321.744 154.038 321.111 153.909 320.471 153.911H301.291C300.653 153.91 300.021 154.039 299.431 154.291C298.841 154.542 298.305 154.91 297.853 155.374C297.402 155.839 297.043 156.39 296.799 156.997C296.555 157.604 296.429 158.254 296.43 158.911V160.278H250.242V91.2638H369.46V160.278ZM375.651 160.278V91.2638H407.82L402.966 160.278H375.651Z" fill="black"/>
<path d="M0 351.374C6.83436 359.702 14.2265 367.529 22.1223 374.797L596.878 375.606C604.774 368.338 612.166 360.511 619 352.183L0 351.374Z" fill="#3F3D56"/>
<path d="M389.76 276.373V345.714C389.76 346.598 390.102 347.445 390.71 348.07C391.317 348.695 392.141 349.046 393 349.047H492.916C493.775 349.046 494.599 348.695 495.207 348.07C495.814 347.445 496.156 346.598 496.157 345.714V276.373C496.155 275.491 495.812 274.644 495.205 274.02C494.598 273.397 493.775 273.046 492.916 273.044H393C392.142 273.046 391.319 273.397 390.711 274.02C390.104 274.644 389.762 275.491 389.76 276.373Z" fill="#3F3D56"/>
<path d="M392.104 277.236V344.859C392.105 345.331 392.288 345.784 392.613 346.117C392.937 346.451 393.377 346.639 393.836 346.64H492.085C492.544 346.639 492.984 346.451 493.309 346.117C493.634 345.784 493.816 345.331 493.817 344.859V277.236C493.817 276.763 493.635 276.31 493.31 275.975C492.985 275.641 492.545 275.452 492.085 275.451H393.836C393.377 275.452 392.936 275.641 392.612 275.975C392.287 276.31 392.105 276.763 392.104 277.236Z" fill="#050505"/>
<path d="M387.67 359.238C387.853 359.474 388.086 359.664 388.351 359.794C388.616 359.925 388.906 359.992 389.199 359.99H496.186C496.478 359.99 496.767 359.922 497.031 359.793C497.295 359.663 497.528 359.475 497.712 359.241C497.896 359.007 498.028 358.734 498.096 358.442C498.165 358.149 498.17 357.845 498.11 357.55L496.449 349.437C496.38 349.107 496.232 348.799 496.018 348.542C495.804 348.285 495.531 348.087 495.223 347.967C495.001 347.877 494.764 347.831 494.525 347.831H390.853C390.614 347.831 390.377 347.877 390.155 347.967C389.847 348.087 389.574 348.285 389.36 348.542C389.146 348.799 388.998 349.107 388.929 349.437L387.268 357.55C387.209 357.844 387.215 358.149 387.284 358.441C387.354 358.733 387.486 359.005 387.67 359.238Z" fill="#2F2E41"/>
<path d="M490.855 351.325H493.382C493.594 351.325 493.766 351.148 493.766 350.93V349.687C493.766 349.469 493.594 349.292 493.382 349.292H490.855C490.642 349.292 490.471 349.469 490.471 349.687V350.93C490.471 351.148 490.642 351.325 490.855 351.325Z" fill="#3F3D56"/>
<path d="M484.264 351.325H486.791C487.003 351.325 487.175 351.148 487.175 350.93V349.687C487.175 349.469 487.003 349.292 486.791 349.292H484.264C484.052 349.292 483.88 349.469 483.88 349.687V350.93C483.88 351.148 484.052 351.325 484.264 351.325Z" fill="#3F3D56"/>
<path d="M477.674 351.325H480.201C480.413 351.325 480.585 351.148 480.585 350.93V349.687C480.585 349.469 480.413 349.292 480.201 349.292H477.674C477.462 349.292 477.29 349.469 477.29 349.687V350.93C477.29 351.148 477.462 351.325 477.674 351.325Z" fill="#3F3D56"/>
<path d="M471.083 351.325H473.61C473.822 351.325 473.994 351.148 473.994 350.93V349.687C473.994 349.469 473.822 349.292 473.61 349.292H471.083C470.871 349.292 470.699 349.469 470.699 349.687V350.93C470.699 351.148 470.871 351.325 471.083 351.325Z" fill="#3F3D56"/>
<path d="M464.493 351.325H467.02C467.232 351.325 467.404 351.148 467.404 350.93V349.687C467.404 349.469 467.232 349.292 467.02 349.292H464.493C464.281 349.292 464.109 349.469 464.109 349.687V350.93C464.109 351.148 464.281 351.325 464.493 351.325Z" fill="#3F3D56"/>
<path d="M457.903 351.325H460.43C460.642 351.325 460.814 351.148 460.814 350.93V349.687C460.814 349.469 460.642 349.292 460.43 349.292H457.903C457.691 349.292 457.519 349.469 457.519 349.687V350.93C457.519 351.148 457.691 351.325 457.903 351.325Z" fill="#3F3D56"/>
<path d="M451.313 351.325H453.84C454.052 351.325 454.224 351.148 454.224 350.93V349.687C454.224 349.469 454.052 349.292 453.84 349.292H451.313C451.1 349.292 450.929 349.469 450.929 349.687V350.93C450.929 351.148 451.1 351.325 451.313 351.325Z" fill="#3F3D56"/>
<path d="M444.723 351.325H447.25C447.462 351.325 447.634 351.148 447.634 350.93V349.687C447.634 349.469 447.462 349.292 447.25 349.292H444.723C444.511 349.292 444.339 349.469 444.339 349.687V350.93C444.339 351.148 444.511 351.325 444.723 351.325Z" fill="#3F3D56"/>
<path d="M438.132 351.325H440.659C440.871 351.325 441.043 351.148 441.043 350.93V349.687C441.043 349.469 440.871 349.292 440.659 349.292H438.132C437.92 349.292 437.748 349.469 437.748 349.687V350.93C437.748 351.148 437.92 351.325 438.132 351.325Z" fill="#3F3D56"/>
<path d="M431.542 351.325H434.069C434.281 351.325 434.453 351.148 434.453 350.93V349.687C434.453 349.469 434.281 349.292 434.069 349.292H431.542C431.33 349.292 431.158 349.469 431.158 349.687V350.93C431.158 351.148 431.33 351.325 431.542 351.325Z" fill="#3F3D56"/>
<path d="M424.951 351.325H427.478C427.69 351.325 427.862 351.148 427.862 350.93V349.687C427.862 349.469 427.69 349.292 427.478 349.292H424.951C424.739 349.292 424.567 349.469 424.567 349.687V350.93C424.567 351.148 424.739 351.325 424.951 351.325Z" fill="#3F3D56"/>
<path d="M418.361 351.325H420.888C421.1 351.325 421.272 351.148 421.272 350.93V349.687C421.272 349.469 421.1 349.292 420.888 349.292H418.361C418.149 349.292 417.977 349.469 417.977 349.687V350.93C417.977 351.148 418.149 351.325 418.361 351.325Z" fill="#3F3D56"/>
<path d="M411.771 351.325H414.298C414.51 351.325 414.682 351.148 414.682 350.93V349.687C414.682 349.469 414.51 349.292 414.298 349.292H411.771C411.558 349.292 411.387 349.469 411.387 349.687V350.93C411.387 351.148 411.558 351.325 411.771 351.325Z" fill="#3F3D56"/>
<path d="M405.181 351.325H407.708C407.92 351.325 408.092 351.148 408.092 350.93V349.687C408.092 349.469 407.92 349.292 407.708 349.292H405.181C404.969 349.292 404.797 349.469 404.797 349.687V350.93C404.797 351.148 404.969 351.325 405.181 351.325Z" fill="#3F3D56"/>
<path d="M398.591 351.325H401.118C401.33 351.325 401.502 351.148 401.502 350.93V349.687C401.502 349.469 401.33 349.292 401.118 349.292H398.591C398.379 349.292 398.207 349.469 398.207 349.687V350.93C398.207 351.148 398.379 351.325 398.591 351.325Z" fill="#3F3D56"/>
<path d="M392 351.325H394.527C394.739 351.325 394.911 351.148 394.911 350.93V349.687C394.911 349.469 394.739 349.292 394.527 349.292H392C391.788 349.292 391.616 349.469 391.616 349.687V350.93C391.616 351.148 391.788 351.325 392 351.325Z" fill="#3F3D56"/>
<path d="M490.932 354.714H493.459C493.671 354.714 493.843 354.537 493.843 354.319V353.076C493.843 352.858 493.671 352.681 493.459 352.681H490.932C490.72 352.681 490.548 352.858 490.548 353.076V354.319C490.548 354.537 490.72 354.714 490.932 354.714Z" fill="#3F3D56"/>
<path d="M484.342 354.714H486.869C487.081 354.714 487.253 354.537 487.253 354.319V353.076C487.253 352.858 487.081 352.681 486.869 352.681H484.342C484.13 352.681 483.958 352.858 483.958 353.076V354.319C483.958 354.537 484.13 354.714 484.342 354.714Z" fill="#3F3D56"/>
<path d="M477.752 354.714H480.279C480.491 354.714 480.663 354.537 480.663 354.319V353.076C480.663 352.858 480.491 352.681 480.279 352.681H477.752C477.54 352.681 477.368 352.858 477.368 353.076V354.319C477.368 354.537 477.54 354.714 477.752 354.714Z" fill="#3F3D56"/>
<path d="M471.161 354.714H473.688C473.9 354.714 474.072 354.537 474.072 354.319V353.076C474.072 352.858 473.9 352.681 473.688 352.681H471.161C470.949 352.681 470.777 352.858 470.777 353.076V354.319C470.777 354.537 470.949 354.714 471.161 354.714Z" fill="#3F3D56"/>
<path d="M464.571 354.714H467.098C467.31 354.714 467.482 354.537 467.482 354.319V353.076C467.482 352.858 467.31 352.681 467.098 352.681H464.571C464.359 352.681 464.187 352.858 464.187 353.076V354.319C464.187 354.537 464.359 354.714 464.571 354.714Z" fill="#3F3D56"/>
<path d="M457.981 354.714H460.508C460.72 354.714 460.892 354.537 460.892 354.319V353.076C460.892 352.858 460.72 352.681 460.508 352.681H457.981C457.768 352.681 457.596 352.858 457.596 353.076V354.319C457.596 354.537 457.768 354.714 457.981 354.714Z" fill="#3F3D56"/>
<path d="M451.391 354.714H453.918C454.13 354.714 454.302 354.537 454.302 354.319V353.076C454.302 352.858 454.13 352.681 453.918 352.681H451.391C451.179 352.681 451.007 352.858 451.007 353.076V354.319C451.007 354.537 451.179 354.714 451.391 354.714Z" fill="#3F3D56"/>
<path d="M444.8 354.714H447.327C447.539 354.714 447.711 354.537 447.711 354.319V353.076C447.711 352.858 447.539 352.681 447.327 352.681H444.8C444.588 352.681 444.416 352.858 444.416 353.076V354.319C444.416 354.537 444.588 354.714 444.8 354.714Z" fill="#3F3D56"/>
<path d="M438.21 354.714H440.737C440.949 354.714 441.121 354.537 441.121 354.319V353.076C441.121 352.858 440.949 352.681 440.737 352.681H438.21C437.998 352.681 437.826 352.858 437.826 353.076V354.319C437.826 354.537 437.998 354.714 438.21 354.714Z" fill="#3F3D56"/>
<path d="M431.62 354.714H434.147C434.359 354.714 434.531 354.537 434.531 354.319V353.076C434.531 352.858 434.359 352.681 434.147 352.681H431.62C431.408 352.681 431.236 352.858 431.236 353.076V354.319C431.236 354.537 431.408 354.714 431.62 354.714Z" fill="#3F3D56"/>
<path d="M425.029 354.714H427.556C427.769 354.714 427.94 354.537 427.94 354.319V353.076C427.94 352.858 427.769 352.681 427.556 352.681H425.029C424.817 352.681 424.645 352.858 424.645 353.076V354.319C424.645 354.537 424.817 354.714 425.029 354.714Z" fill="#3F3D56"/>
<path d="M418.44 354.714H420.966C421.179 354.714 421.351 354.537 421.351 354.319V353.076C421.351 352.858 421.179 352.681 420.966 352.681H418.44C418.227 352.681 418.055 352.858 418.055 353.076V354.319C418.055 354.537 418.227 354.714 418.44 354.714Z" fill="#3F3D56"/>
<path d="M411.849 354.714H414.376C414.588 354.714 414.76 354.537 414.76 354.319V353.076C414.76 352.858 414.588 352.681 414.376 352.681H411.849C411.637 352.681 411.465 352.858 411.465 353.076V354.319C411.465 354.537 411.637 354.714 411.849 354.714Z" fill="#3F3D56"/>
<path d="M405.259 354.714H407.786C407.998 354.714 408.17 354.537 408.17 354.319V353.076C408.17 352.858 407.998 352.681 407.786 352.681H405.259C405.047 352.681 404.875 352.858 404.875 353.076V354.319C404.875 354.537 405.047 354.714 405.259 354.714Z" fill="#3F3D56"/>
<path d="M398.668 354.714H401.195C401.407 354.714 401.579 354.537 401.579 354.319V353.076C401.579 352.858 401.407 352.681 401.195 352.681H398.668C398.456 352.681 398.284 352.858 398.284 353.076V354.319C398.284 354.537 398.456 354.714 398.668 354.714Z" fill="#3F3D56"/>
<path d="M392.078 354.714H394.605C394.817 354.714 394.989 354.537 394.989 354.319V353.076C394.989 352.858 394.817 352.681 394.605 352.681H392.078C391.866 352.681 391.694 352.858 391.694 353.076V354.319C391.694 354.537 391.866 354.714 392.078 354.714Z" fill="#3F3D56"/>
<path d="M436.233 358.781H461.826C462.038 358.781 462.21 358.604 462.21 358.386V357.142C462.21 356.924 462.038 356.747 461.826 356.747H436.233C436.021 356.747 435.849 356.924 435.849 357.142V358.386C435.849 358.604 436.021 358.781 436.233 358.781Z" fill="#3F3D56"/>
<path d="M409.118 290.246H406.88C406.202 290.246 405.652 290.811 405.652 291.509C405.652 292.206 406.202 292.772 406.88 292.772H409.118C409.796 292.772 410.346 292.206 410.346 291.509C410.346 290.811 409.796 290.246 409.118 290.246Z" fill="white"/>
<path d="M434.705 290.246H432.467C431.789 290.246 431.239 290.811 431.239 291.509C431.239 292.206 431.789 292.772 432.467 292.772H434.705C435.383 292.772 435.933 292.206 435.933 291.509C435.933 290.811 435.383 290.246 434.705 290.246Z" fill="white"/>
<path d="M441.954 290.246H439.716C439.038 290.246 438.488 290.811 438.488 291.509C438.488 292.206 439.038 292.772 439.716 292.772H441.954C442.632 292.772 443.182 292.206 443.182 291.509C443.182 290.811 442.632 290.246 441.954 290.246Z" fill="white"/>
<path d="M427.745 290.035H413.84C413.162 290.035 412.612 290.601 412.612 291.298C412.612 291.996 413.162 292.561 413.84 292.561H427.745C428.423 292.561 428.973 291.996 428.973 291.298C428.973 290.601 428.423 290.035 427.745 290.035Z" fill="white"/>
<path d="M461.86 290.035H447.956C447.277 290.035 446.728 290.601 446.728 291.298C446.728 291.996 447.277 292.561 447.956 292.561H461.86C462.538 292.561 463.088 291.996 463.088 291.298C463.088 290.601 462.538 290.035 461.86 290.035Z" fill="white"/>
<path d="M415.941 295.947H413.704C413.025 295.947 412.476 296.512 412.476 297.21C412.476 297.907 413.025 298.473 413.704 298.473H415.941C416.619 298.473 417.169 297.907 417.169 297.21C417.169 296.512 416.619 295.947 415.941 295.947Z" fill="white"/>
<path d="M441.527 295.947H439.29C438.611 295.947 438.062 296.512 438.062 297.21C438.062 297.907 438.611 298.473 439.29 298.473H441.527C442.205 298.473 442.755 297.907 442.755 297.21C442.755 296.512 442.205 295.947 441.527 295.947Z" fill="white"/>
<path d="M448.777 295.947H446.54C445.861 295.947 445.312 296.512 445.312 297.21C445.312 297.907 445.861 298.473 446.54 298.473H448.777C449.455 298.473 450.005 297.907 450.005 297.21C450.005 296.512 449.455 295.947 448.777 295.947Z" fill="white"/>
<path d="M434.568 295.736H420.664C419.985 295.736 419.436 296.302 419.436 296.999C419.436 297.697 419.985 298.262 420.664 298.262H434.568C435.246 298.262 435.796 297.697 435.796 296.999C435.796 296.302 435.246 295.736 434.568 295.736Z" fill="#9721FF"/>
<path d="M468.682 295.736H454.778C454.1 295.736 453.55 296.302 453.55 296.999C453.55 297.697 454.1 298.262 454.778 298.262H468.682C469.361 298.262 469.91 297.697 469.91 296.999C469.91 296.302 469.361 295.736 468.682 295.736Z" fill="white"/>
<path d="M422.764 301.648H420.527C419.849 301.648 419.299 302.213 419.299 302.911C419.299 303.609 419.849 304.174 420.527 304.174H422.764C423.442 304.174 423.992 303.609 423.992 302.911C423.992 302.213 423.442 301.648 422.764 301.648Z" fill="white"/>
<path d="M448.35 301.648H446.113C445.435 301.648 444.885 302.213 444.885 302.911C444.885 303.609 445.435 304.174 446.113 304.174H448.35C449.028 304.174 449.578 303.609 449.578 302.911C449.578 302.213 449.028 301.648 448.35 301.648Z" fill="white"/>
<path d="M455.6 301.648H453.363C452.685 301.648 452.135 302.213 452.135 302.911C452.135 303.609 452.685 304.174 453.363 304.174H455.6C456.278 304.174 456.828 303.609 456.828 302.911C456.828 302.213 456.278 301.648 455.6 301.648Z" fill="white"/>
<path d="M441.39 301.438H427.486C426.808 301.438 426.258 302.003 426.258 302.701C426.258 303.398 426.808 303.964 427.486 303.964H441.39C442.069 303.964 442.618 303.398 442.618 302.701C442.618 302.003 442.069 301.438 441.39 301.438Z" fill="white"/>
<path d="M475.506 301.438H461.601C460.923 301.438 460.373 302.003 460.373 302.701C460.373 303.398 460.923 303.964 461.601 303.964H475.506C476.184 303.964 476.734 303.398 476.734 302.701C476.734 302.003 476.184 301.438 475.506 301.438Z" fill="white"/>
<path d="M429.587 307.35H427.35C426.672 307.35 426.122 307.915 426.122 308.613C426.122 309.31 426.672 309.876 427.35 309.876H429.587C430.266 309.876 430.815 309.31 430.815 308.613C430.815 307.915 430.266 307.35 429.587 307.35Z" fill="white"/>
<path d="M455.173 307.35H452.936C452.258 307.35 451.708 307.915 451.708 308.613C451.708 309.31 452.258 309.876 452.936 309.876H455.173C455.852 309.876 456.401 309.31 456.401 308.613C456.401 307.915 455.852 307.35 455.173 307.35Z" fill="white"/>
<path d="M462.422 307.35H460.185C459.507 307.35 458.957 307.915 458.957 308.613C458.957 309.31 459.507 309.876 460.185 309.876H462.422C463.101 309.876 463.65 309.31 463.65 308.613C463.65 307.915 463.101 307.35 462.422 307.35Z" fill="white"/>
<path d="M448.213 307.139H434.309C433.631 307.139 433.081 307.704 433.081 308.402C433.081 309.099 433.631 309.665 434.309 309.665H448.213C448.892 309.665 449.442 309.099 449.442 308.402C449.442 307.704 448.892 307.139 448.213 307.139Z" fill="#04FA55"/>
<path d="M434.705 330.02H432.467C431.789 330.02 431.239 330.585 431.239 331.283C431.239 331.981 431.789 332.546 432.467 332.546H434.705C435.383 332.546 435.933 331.981 435.933 331.283C435.933 330.585 435.383 330.02 434.705 330.02Z" fill="white"/>
<path d="M441.954 330.02H439.716C439.038 330.02 438.488 330.585 438.488 331.283C438.488 331.981 439.038 332.546 439.716 332.546H441.954C442.632 332.546 443.182 331.981 443.182 331.283C443.182 330.585 442.632 330.02 441.954 330.02Z" fill="white"/>
<path d="M461.86 330.23H447.956C447.277 330.23 446.728 330.796 446.728 331.494C446.728 332.191 447.277 332.757 447.956 332.757H461.86C462.538 332.757 463.088 332.191 463.088 331.494C463.088 330.796 462.538 330.23 461.86 330.23Z" fill="white"/>
<path d="M409.118 330.02H406.88C406.202 330.02 405.652 330.585 405.652 331.283C405.652 331.981 406.202 332.546 406.88 332.546H409.118C409.796 332.546 410.346 331.981 410.346 331.283C410.346 330.585 409.796 330.02 409.118 330.02Z" fill="white"/>
<path d="M427.745 330.23H413.84C413.162 330.23 412.612 330.796 412.612 331.494C412.612 332.191 413.162 332.757 413.84 332.757H427.745C428.423 332.757 428.973 332.191 428.973 331.494C428.973 330.796 428.423 330.23 427.745 330.23Z" fill="white"/>
<path d="M415.941 324.319H413.704C413.025 324.319 412.476 324.884 412.476 325.582C412.476 326.279 413.025 326.845 413.704 326.845H415.941C416.619 326.845 417.169 326.279 417.169 325.582C417.169 324.884 416.619 324.319 415.941 324.319Z" fill="white"/>
<path d="M441.527 324.319H439.29C438.611 324.319 438.062 324.884 438.062 325.582C438.062 326.279 438.611 326.845 439.29 326.845H441.527C442.205 326.845 442.755 326.279 442.755 325.582C442.755 324.884 442.205 324.319 441.527 324.319Z" fill="white"/>
<path d="M448.777 324.319H446.54C445.861 324.319 445.312 324.884 445.312 325.582C445.312 326.279 445.861 326.845 446.54 326.845H448.777C449.455 326.845 450.005 326.279 450.005 325.582C450.005 324.884 449.455 324.319 448.777 324.319Z" fill="white"/>
<path d="M434.568 324.529H420.664C419.985 324.529 419.436 325.095 419.436 325.792C419.436 326.49 419.985 327.055 420.664 327.055H434.568C435.246 327.055 435.796 326.49 435.796 325.792C435.796 325.095 435.246 324.529 434.568 324.529Z" fill="white"/>
<path d="M422.764 318.618H420.527C419.849 318.618 419.299 319.183 419.299 319.881C419.299 320.578 419.849 321.144 420.527 321.144H422.764C423.442 321.144 423.992 320.578 423.992 319.881C423.992 319.183 423.442 318.618 422.764 318.618Z" fill="white"/>
<path d="M448.35 318.618H446.113C445.435 318.618 444.885 319.183 444.885 319.881C444.885 320.578 445.435 321.144 446.113 321.144H448.35C449.028 321.144 449.578 320.578 449.578 319.881C449.578 319.183 449.028 318.618 448.35 318.618Z" fill="white"/>
<path d="M455.6 318.618H453.363C452.685 318.618 452.135 319.183 452.135 319.881C452.135 320.578 452.685 321.144 453.363 321.144H455.6C456.278 321.144 456.828 320.578 456.828 319.881C456.828 319.183 456.278 318.618 455.6 318.618Z" fill="white"/>
<path d="M441.39 318.828H427.486C426.808 318.828 426.258 319.394 426.258 320.091C426.258 320.789 426.808 321.354 427.486 321.354H441.39C442.069 321.354 442.618 320.789 442.618 320.091C442.618 319.394 442.069 318.828 441.39 318.828Z" fill="white"/>
<path d="M429.587 312.916H427.35C426.672 312.916 426.122 313.482 426.122 314.179C426.122 314.877 426.672 315.442 427.35 315.442H429.587C430.266 315.442 430.815 314.877 430.815 314.179C430.815 313.482 430.266 312.916 429.587 312.916Z" fill="white"/>
<path d="M455.173 312.916H452.936C452.258 312.916 451.708 313.482 451.708 314.179C451.708 314.877 452.258 315.442 452.936 315.442H455.173C455.852 315.442 456.401 314.877 456.401 314.179C456.401 313.482 455.852 312.916 455.173 312.916Z" fill="white"/>
<path d="M462.422 312.916H460.185C459.507 312.916 458.957 313.482 458.957 314.179C458.957 314.877 459.507 315.442 460.185 315.442H462.422C463.101 315.442 463.65 314.877 463.65 314.179C463.65 313.482 463.101 312.916 462.422 312.916Z" fill="white"/>
<path d="M448.213 313.127H434.309C433.631 313.127 433.081 313.692 433.081 314.39C433.081 315.088 433.631 315.653 434.309 315.653H448.213C448.892 315.653 449.442 315.088 449.442 314.39C449.442 313.692 448.892 313.127 448.213 313.127Z" fill="white"/>
<path d="M397.224 396.837L386.722 379.764L419.686 352.739L433.293 337.236C435.061 335.222 437.311 333.72 439.82 332.881C442.329 332.042 445.008 331.894 447.59 332.453C450.171 333.013 452.565 334.259 454.532 336.067C456.498 337.876 457.969 340.184 458.797 342.76C460.023 346.578 459.759 350.736 458.061 354.358C456.363 357.979 453.363 360.781 449.694 362.171L428.179 370.322L397.224 396.837Z" fill="#FFB6B6"/>
<path d="M150.805 273.048V356.026H207.33V273.048C207.331 272.451 207.146 271.869 206.802 271.389C206.457 270.908 205.973 270.554 205.418 270.378C205.157 270.289 204.883 270.245 204.608 270.248H153.535C153.177 270.247 152.822 270.319 152.491 270.46C152.16 270.6 151.859 270.806 151.605 271.066C151.352 271.326 151.151 271.635 151.013 271.975C150.876 272.315 150.805 272.679 150.805 273.048ZM172.864 301.559C172.879 299.924 173.521 298.36 174.651 297.208C175.781 296.057 177.307 295.411 178.898 295.411C180.489 295.411 182.015 296.057 183.145 297.208C184.275 298.36 184.917 299.924 184.932 301.559V311.187C184.924 312.828 184.285 314.398 183.154 315.555C182.023 316.712 180.493 317.361 178.898 317.361C177.303 317.361 175.773 316.712 174.642 315.555C173.512 314.398 172.872 312.828 172.864 311.187V301.559Z" fill="#2F2E41"/>
<path d="M150.632 353.373V361.374C150.633 361.789 150.793 362.186 151.077 362.48C151.362 362.774 151.747 362.94 152.15 362.944H205.985C206.388 362.942 206.774 362.776 207.059 362.481C207.344 362.187 207.503 361.789 207.503 361.374V353.373H150.632Z" fill="#3F3D56"/>
<path d="M61.8828 148.029V299.537C61.8843 301.468 62.6307 303.319 63.9583 304.684C65.2858 306.049 67.0858 306.817 68.9632 306.819H287.276C289.153 306.817 290.953 306.049 292.281 304.684C293.608 303.319 294.354 301.468 294.356 299.537V148.029C294.351 146.1 293.604 144.252 292.277 142.888C290.95 141.525 289.151 140.758 287.276 140.756H68.9632C67.0875 140.758 65.2891 141.525 63.962 142.888C62.6349 144.252 61.8873 146.1 61.8828 148.029Z" fill="#3F3D56"/>
<path d="M67.0039 149.914V297.668C67.0056 298.699 67.4049 299.688 68.1141 300.418C68.8234 301.147 69.7849 301.558 70.788 301.56H285.458C286.461 301.558 287.422 301.147 288.132 300.418C288.841 299.688 289.24 298.699 289.242 297.668V149.914C289.242 148.882 288.843 147.891 288.134 147.16C287.425 146.429 286.462 146.017 285.458 146.015H70.788C69.7837 146.017 68.8213 146.429 68.1119 147.16C67.4025 147.891 67.004 148.882 67.0039 149.914Z" fill="white"/>
<path d="M106.843 362.402C107.061 362.684 107.339 362.911 107.655 363.066C107.971 363.222 108.318 363.302 108.668 363.3H236.383C236.732 363.299 237.077 363.219 237.392 363.064C237.707 362.91 237.985 362.685 238.205 362.406C238.425 362.127 238.582 361.801 238.664 361.452C238.746 361.102 238.752 360.739 238.68 360.387L236.697 350.703C236.615 350.308 236.438 349.94 236.183 349.634C235.927 349.327 235.601 349.091 235.234 348.947C234.968 348.84 234.686 348.785 234.4 348.785H110.643C110.357 348.785 110.074 348.84 109.809 348.947C109.442 349.091 109.116 349.327 108.86 349.633C108.605 349.94 108.428 350.308 108.345 350.703L106.363 360.387C106.292 360.739 106.299 361.102 106.382 361.45C106.465 361.799 106.622 362.124 106.843 362.402Z" fill="#2F2E41"/>
<path d="M278.492 166.368H77.626C77.4172 166.363 77.2185 166.275 77.0725 166.121C76.9265 165.968 76.8447 165.761 76.8447 165.547C76.8447 165.332 76.9265 165.126 77.0725 164.972C77.2185 164.819 77.4172 164.73 77.626 164.725H278.492C278.7 164.73 278.899 164.819 279.045 164.972C279.191 165.126 279.273 165.332 279.273 165.547C279.273 165.761 279.191 165.968 279.045 166.121C278.899 166.275 278.7 166.363 278.492 166.368Z" fill="#3F3D56"/>
<path d="M91.2985 160.531C93.8838 160.531 95.9797 158.327 95.9797 155.609C95.9797 152.891 93.8838 150.688 91.2985 150.688C88.7131 150.688 86.6172 152.891 86.6172 155.609C86.6172 158.327 88.7131 160.531 91.2985 160.531Z" fill="#3F3D56"/>
<path d="M107.47 160.531C110.056 160.531 112.152 158.327 112.152 155.609C112.152 152.891 110.056 150.688 107.47 150.688C104.885 150.688 102.789 152.891 102.789 155.609C102.789 158.327 104.885 160.531 107.47 160.531Z" fill="#3F3D56"/>
<path d="M123.642 160.531C126.228 160.531 128.323 158.327 128.323 155.609C128.323 152.891 126.228 150.688 123.642 150.688C121.057 150.688 118.961 152.891 118.961 155.609C118.961 158.327 121.057 160.531 123.642 160.531Z" fill="#3F3D56"/>
<path d="M268.753 151.905H257.267C257.04 151.91 256.824 152.007 256.666 152.174C256.507 152.341 256.418 152.565 256.418 152.799C256.418 153.032 256.507 153.257 256.666 153.424C256.824 153.591 257.04 153.687 257.267 153.693H268.753C268.982 153.69 269.2 153.594 269.36 153.427C269.52 153.259 269.61 153.034 269.61 152.799C269.61 152.564 269.52 152.338 269.36 152.171C269.2 152.004 268.982 151.908 268.753 151.905Z" fill="#3F3D56"/>
<path d="M268.753 155.262H257.267C257.04 155.267 256.824 155.364 256.665 155.531C256.506 155.698 256.417 155.922 256.417 156.156C256.417 156.39 256.506 156.614 256.665 156.782C256.824 156.949 257.04 157.045 257.267 157.05H268.753C268.982 157.047 269.2 156.952 269.361 156.785C269.522 156.617 269.612 156.392 269.612 156.156C269.612 155.921 269.522 155.695 269.361 155.528C269.2 155.36 268.982 155.265 268.753 155.262Z" fill="#3F3D56"/>
<path d="M268.753 158.62H257.267C257.04 158.626 256.824 158.722 256.666 158.889C256.507 159.056 256.418 159.281 256.418 159.514C256.418 159.748 256.507 159.972 256.666 160.139C256.824 160.306 257.04 160.403 257.267 160.408H268.753C268.982 160.405 269.2 160.309 269.36 160.142C269.52 159.975 269.61 159.749 269.61 159.514C269.61 159.279 269.52 159.054 269.36 158.886C269.2 158.719 268.982 158.623 268.753 158.62Z" fill="#3F3D56"/>
<path d="M545.66 356.884C546.006 357.922 546.664 358.82 547.538 359.45C548.412 360.08 549.457 360.408 550.524 360.389L571.365 359.837C572.44 359.815 573.479 359.437 574.327 358.758C575.175 358.078 575.787 357.135 576.071 356.069L579.02 323.635C580.066 324.123 581.206 324.364 582.354 324.34C583.352 324.314 584.335 324.087 585.247 323.67C586.16 323.254 586.983 322.656 587.671 321.913C588.359 321.169 588.897 320.293 589.256 319.335C589.615 318.377 589.787 317.356 589.762 316.33C589.737 315.303 589.515 314.292 589.11 313.354C588.705 312.416 588.124 311.569 587.401 310.861C586.678 310.154 585.826 309.6 584.895 309.231C583.963 308.862 582.97 308.686 581.973 308.711C581.513 308.71 581.056 308.759 580.607 308.858C580.118 308.314 579.525 307.882 578.865 307.589C578.204 307.296 577.491 307.149 576.772 307.156L544.713 308.007C544.447 308.018 544.183 308.051 543.923 308.108C543.219 308.243 542.553 308.531 541.967 308.953C541.381 309.375 540.89 309.922 540.527 310.555C540.164 311.189 539.937 311.895 539.861 312.626C539.785 313.358 539.863 314.097 540.089 314.795L545.66 356.884ZM579.625 321.433L581.723 313.704C581.962 312.812 581.968 311.87 581.739 310.974C581.841 310.974 581.931 310.924 582.033 310.924C583.472 310.893 584.864 311.451 585.904 312.474C586.944 313.498 587.547 314.903 587.58 316.383C587.614 317.863 587.076 319.296 586.084 320.368C585.091 321.44 583.726 322.064 582.288 322.103C581.357 322.133 580.437 321.901 579.625 321.433Z" fill="#2F2E41"/>
<path d="M543.922 308.108C544.605 312.125 552.284 314.948 561.517 314.457C570.008 314.055 576.951 310.989 578.223 307.355C577.752 307.212 577.262 307.145 576.772 307.156L544.713 308.007C544.447 308.017 544.182 308.051 543.922 308.108Z" fill="#3F3D56"/>
<path d="M563.21 339.062C563.253 339.051 563.293 339.033 563.329 339.008L567.855 335.961C567.91 335.925 567.955 335.875 567.986 335.816C568.017 335.756 568.033 335.69 568.033 335.623C568.034 335.556 568.017 335.49 567.986 335.431C567.955 335.372 567.91 335.322 567.855 335.285L563.151 332.116C563.108 332.087 563.06 332.066 563.009 332.056C562.958 332.046 562.906 332.046 562.855 332.057C562.804 332.068 562.756 332.089 562.713 332.119C562.67 332.149 562.634 332.187 562.605 332.231C562.577 332.276 562.557 332.326 562.548 332.378C562.538 332.431 562.539 332.484 562.549 332.536C562.56 332.588 562.581 332.638 562.61 332.682C562.639 332.726 562.677 332.763 562.72 332.792L566.922 335.623L562.899 338.331C562.821 338.384 562.763 338.463 562.737 338.555C562.71 338.646 562.716 338.745 562.754 338.832C562.791 338.92 562.858 338.991 562.941 339.033C563.025 339.075 563.12 339.085 563.21 339.062Z" fill="#04FA55"/>
<path d="M556.061 339.401C556.137 339.381 556.205 339.339 556.258 339.279C556.31 339.219 556.343 339.144 556.354 339.064C556.365 338.984 556.352 338.903 556.317 338.831C556.283 338.758 556.228 338.698 556.16 338.658L551.988 336.198L556.02 333.118C556.062 333.086 556.097 333.046 556.123 333.001C556.15 332.955 556.167 332.905 556.175 332.852C556.182 332.8 556.18 332.746 556.167 332.695C556.155 332.643 556.132 332.595 556.102 332.552C556.071 332.51 556.032 332.474 555.988 332.447C555.943 332.419 555.894 332.401 555.843 332.393C555.792 332.386 555.74 332.388 555.69 332.401C555.64 332.414 555.593 332.437 555.552 332.469L551.037 335.918C550.984 335.958 550.943 336.011 550.915 336.071C550.887 336.132 550.875 336.199 550.879 336.266C550.882 336.333 550.903 336.398 550.937 336.455C550.971 336.512 551.019 336.56 551.076 336.593L555.769 339.36C555.857 339.412 555.962 339.427 556.061 339.401Z" fill="#04FA55"/>
<path d="M562.759 341.732C562.797 341.722 562.834 341.706 562.867 341.685C562.911 341.657 562.95 341.621 562.98 341.578C563.011 341.535 563.033 341.487 563.045 341.435C563.057 341.383 563.059 341.33 563.052 341.277C563.044 341.225 563.026 341.174 562.999 341.129L556.583 330.28C556.528 330.189 556.441 330.123 556.34 330.098C556.238 330.073 556.131 330.09 556.042 330.146C555.953 330.202 555.889 330.292 555.865 330.396C555.84 330.5 555.857 330.61 555.911 330.702L562.327 341.55C562.37 341.624 562.436 341.681 562.514 341.714C562.592 341.747 562.678 341.753 562.759 341.732Z" fill="#04FA55"/>
<path d="M202.059 211.029H167.294C165.875 211.029 164.726 212.211 164.726 213.67V217.163C164.726 218.621 165.875 219.804 167.294 219.804H202.059C203.477 219.804 204.627 218.621 204.627 217.163V213.67C204.627 212.211 203.477 211.029 202.059 211.029Z" fill="#04FA55"/>
<path d="M222.323 228.579H147.029C145.611 228.579 144.461 229.761 144.461 231.22V234.713C144.461 236.172 145.611 237.354 147.029 237.354H222.323C223.742 237.354 224.891 236.172 224.891 234.713V231.22C224.891 229.761 223.742 228.579 222.323 228.579Z" fill="#E6E6E6"/>
<path d="M222.323 246.129H147.029C145.611 246.129 144.461 247.311 144.461 248.77V252.263C144.461 253.722 145.611 254.904 147.029 254.904H222.323C223.742 254.904 224.891 253.722 224.891 252.263V248.77C224.891 247.311 223.742 246.129 222.323 246.129Z" fill="#E6E6E6"/>
<path d="M228.706 304.897L228.877 305.451L228.886 305.469L234.019 321.519L239.924 340.016L251.035 374.775L251.142 380.174V380.193L251.968 423.627L249.68 429.516L252.255 439.17C252.255 439.17 251.071 424.577 244.717 432.957C241.118 437.72 236.909 442.593 233.454 447.162C238.488 449.257 243.604 451.152 248.8 452.847C249.922 453.216 251.053 453.567 252.183 453.918C252.426 453.992 252.668 454.066 252.91 454.139C270.135 459.378 287.943 462.322 305.896 462.898C306.829 462.926 307.745 462.944 308.633 462.963C308.947 462.972 309.253 462.981 309.558 462.981C310.563 462.991 311.559 463 312.564 463C314.592 463 316.612 462.969 318.622 462.908C333.501 462.476 348.294 460.419 362.75 456.77C362.651 450.632 362.382 443.461 361.996 435.8C361.816 432.044 357.787 427.973 357.545 424.041C357.374 421.088 360.991 418.31 360.802 415.31C359.582 396.842 358.056 403.931 356.925 390.853C356.809 389.57 356.701 388.342 356.602 387.17C355.875 378.771 355.373 373.519 355.373 373.519L360.201 342.222L367.785 293.083L367.201 292.095L366.546 291.763L326.546 271.402L324.375 265.68C323.742 264.031 322.644 262.615 321.222 261.613C319.8 260.612 318.12 260.07 316.396 260.059L290.047 259.948C288.68 259.942 287.33 260.271 286.111 260.908C284.892 261.546 283.839 262.473 283.038 263.613L275.903 273.774L228.706 304.897Z" fill="#209183"/>
<path d="M257.11 367.04L251.142 380.174L247.068 389.145L240.059 426.885L236.55 430.716L233.543 417.156L202.077 424.341C201.044 418.444 201.8 424.541 201.163 418.071C201.343 417.886 201.531 417.702 201.72 417.517C202.222 417.037 202.644 416.585 202.635 416.151C202.276 393.834 203.353 355.854 212.345 332.844C213.754 329.087 215.611 325.525 217.874 322.239C218.053 321.99 218.224 321.741 218.394 321.492C222.54 315.52 225.161 309.641 228.876 305.46V305.451C228.9 305.431 228.921 305.41 228.939 305.386C228.953 305.379 228.965 305.37 228.975 305.358L254.499 291.44L255.594 323.079L256.374 345.821L257.11 367.04Z" fill="#209183"/>
<path d="M349.144 370.771L356.598 387.175L359.2 392.888L366.207 430.624L369.705 434.445L372.718 420.889L374.134 420.59L399.67 415.151L407.113 439.461C408.79 436.586 409.451 433.204 408.983 429.887C408.516 426.569 406.949 423.519 404.547 421.252C404.039 420.779 403.615 420.319 403.627 419.883C404.051 393.634 402.49 345.704 388.391 325.977C383.913 319.717 381.226 313.481 377.317 309.125C377.305 309.113 377.305 309.1 377.293 309.1L367.781 293.082L367.2 292.099L366.546 291.763L349.144 370.771Z" fill="#209183"/>
<path d="M303.982 252.236C323.342 252.236 339.037 236.096 339.037 216.185C339.037 196.275 323.342 180.134 303.982 180.134C284.622 180.134 268.928 196.275 268.928 216.185C268.928 236.096 284.622 252.236 303.982 252.236Z" fill="#FFB6B6"/>
<path d="M351.363 191.004C351.091 190.705 350.763 190.466 350.4 190.301C350.036 190.135 349.644 190.047 349.246 190.041L349.773 188.536C349.945 188.062 349.992 187.55 349.908 187.051C349.824 186.553 349.613 186.086 349.296 185.699C348.979 185.312 348.567 185.019 348.104 184.849C347.64 184.68 347.141 184.64 346.658 184.734L344.738 185.114L344.919 183.795C344.989 183.304 344.933 182.803 344.756 182.34C344.58 181.878 344.29 181.471 343.915 181.16C343.539 180.848 343.091 180.642 342.615 180.562C342.139 180.482 341.651 180.531 341.198 180.704C340.787 180.871 340.344 180.941 339.903 180.908C339.462 180.876 339.034 180.743 338.649 180.518C338.263 180.301 337.928 179.999 337.667 179.634C337.406 179.269 337.226 178.85 337.139 178.407L336.47 175.089L336.399 174.911C333.142 169.329 326.88 165.267 319.218 163.778C312.397 162.443 305.403 163.123 298.661 163.762C295.986 164.021 292.965 164.312 290.447 165.898C288.308 167.257 286.498 169.976 286.868 172.719C280.22 170.623 273.093 174.806 269.56 180.081C265.375 186.36 264.691 194.224 264.58 200.373C264.281 214.92 267.2 226.822 273.234 235.754C273.675 236.401 273.785 237.752 274.658 238.205L274.477 237.906C275.453 238.408 276.444 239.217 276.074 240.082C275.012 242.574 282.069 248.084 287.041 249.905C296.112 253.23 308.172 252.947 316.653 251.749L316.952 249.686C320.012 249.257 322.168 248.44 322.773 247.162C323.843 246.223 324.756 245.382 325.551 244.605L325.558 244.597C325.574 244.581 325.606 244.557 325.621 244.54C329.453 240.762 330.342 238.61 330.743 235.333C331.128 232.121 330.444 228.861 329.744 225.924C344.487 228.27 323.938 209.774 337.674 206.198C337.831 206.148 337.991 206.108 338.154 206.077C338.555 205.98 338.956 205.883 339.342 205.77C341.2 205.251 342.979 204.469 344.628 203.448C348.467 201.045 349.734 197.857 351.717 194.264C352.003 193.753 352.123 193.161 352.059 192.575C351.995 191.988 351.751 191.438 351.363 191.004Z" fill="#3C3B3B"/>
<path d="M427.965 373.337C427.957 374.753 427.941 376.735 427.878 379.187C427.87 379.527 427.862 379.875 427.854 380.231C427.752 384.737 427.65 388.515 427.485 392.715C427.477 393.006 427.469 393.289 427.453 393.58C427.233 399.438 426.887 406.259 426.289 417.06C425.18 437.012 423.244 419.802 421.301 426.801C421.207 427.149 421.104 427.562 421.01 428.047C420.716 429.808 420.219 431.527 419.531 433.168C418.5 433.799 417.438 434.406 416.392 435.013C413.41 436.72 410.382 438.363 407.329 439.924C405.614 440.798 403.891 441.656 402.161 442.481C401.885 442.61 401.618 442.74 401.35 442.861C392.487 447.077 383.353 450.662 374.012 453.59C372.187 454.156 370.37 454.706 368.529 455.216C366.609 455.766 364.689 456.284 362.746 456.769C348.291 460.419 333.499 462.477 318.62 462.91C316.614 462.975 314.592 462.999 312.562 462.999C311.555 462.999 310.564 462.991 309.557 462.983C309.25 462.983 308.943 462.975 308.636 462.967C307.747 462.942 306.827 462.926 305.899 462.902C287.945 462.326 270.138 459.381 252.914 454.14L252.182 453.921C251.049 453.565 249.924 453.217 248.799 452.845C243.607 451.154 238.49 449.261 233.45 447.165C229.603 445.572 225.801 443.862 222.043 442.036C222.009 442.026 221.977 442.01 221.949 441.987C221.162 441.615 220.367 441.227 219.581 440.83C219.478 440.774 219.368 440.717 219.258 440.66C216.324 439.188 213.421 437.645 210.549 436.033C208.134 430.329 204.735 429.236 202.627 424.22C202.013 422.73 201.57 421.171 201.305 419.576C201.305 419.56 201.297 419.544 201.297 419.519C201.518 422.529 200.361 414.179 201.29 419.487C201.282 419.39 201.274 419.285 201.266 419.163C201.242 418.872 201.211 418.516 201.164 418.071C198.465 390.975 198.638 359.988 197.466 334.453C197.387 332.803 197.306 331.222 197.222 329.712C197.199 329.21 197.167 328.717 197.136 328.231C197.191 328.086 197.254 327.932 197.325 327.786C197.34 327.744 197.358 327.704 197.38 327.665C197.403 327.615 197.429 327.566 197.458 327.519C197.474 327.495 197.498 327.463 197.513 327.438C197.525 327.411 197.538 327.384 197.553 327.357C197.624 327.244 197.702 327.123 197.789 327.01C197.828 326.961 197.86 326.92 197.899 326.88C197.926 326.839 197.958 326.801 197.993 326.767C198.017 326.728 198.047 326.693 198.08 326.662C198.111 326.629 198.143 326.589 198.182 326.548C198.199 326.523 198.22 326.501 198.245 326.484C198.307 326.41 198.376 326.342 198.45 326.281C198.73 326.016 199.03 325.772 199.346 325.553C199.456 325.48 199.575 325.408 199.685 325.327C200.478 324.839 201.312 324.427 202.179 324.097C202.478 323.984 202.776 323.878 203.099 323.765C203.217 323.733 203.327 323.692 203.445 323.652C203.618 323.595 203.791 323.539 203.972 323.498C204.869 323.223 205.837 322.988 206.883 322.77C207.009 322.746 207.143 322.721 207.276 322.689C207.465 322.649 207.662 322.616 207.859 322.584C208.126 322.535 208.401 322.487 208.677 322.438C211.013 322.058 213.665 321.775 216.591 321.589C216.866 321.573 217.142 321.556 217.417 321.54C217.74 321.524 218.062 321.508 218.393 321.492C218.668 321.476 218.951 321.467 219.234 321.459C219.51 321.443 219.793 321.435 220.084 321.427C220.879 321.403 221.697 321.378 222.531 321.362C224.907 321.314 227.408 321.33 230.036 321.387C231.255 321.419 232.498 321.451 233.773 321.508C233.859 321.508 233.938 321.516 234.017 321.516C235.126 321.556 236.243 321.605 237.392 321.67C238.194 321.71 239.004 321.751 239.815 321.799C240.578 321.848 241.349 321.896 242.128 321.953C242.733 321.985 243.339 322.034 243.953 322.074C244.472 322.115 244.991 322.155 245.511 322.188L246.219 322.236C246.604 322.268 246.99 322.293 247.383 322.333C248.248 322.406 249.114 322.479 249.995 322.552C250.868 322.633 251.757 322.713 252.646 322.794C253.535 322.875 254.432 322.964 255.329 323.053C255.423 323.061 255.51 323.069 255.596 323.077C256.414 323.167 257.233 323.247 258.059 323.336C258.247 323.353 258.444 323.369 258.633 323.393C259.42 323.474 260.223 323.57 261.018 323.657C261.262 323.684 261.505 323.71 261.749 323.737C262.372 323.807 262.986 323.867 263.613 323.943C264.439 324.04 265.281 324.129 266.099 324.243C266.736 324.315 267.373 324.388 268.01 324.469C269.01 324.59 270.024 324.72 271.039 324.857C271.425 324.906 271.81 324.955 272.196 325.011C275.091 325.383 278.017 325.796 280.991 326.225C285.499 326.88 290.078 327.592 294.688 328.361C299.306 329.129 303.95 329.941 308.62 330.796C309.801 331.015 310.981 331.233 312.169 331.459C312.704 331.565 313.238 331.67 313.773 331.775C314.686 331.945 315.599 332.123 316.511 332.301C317.424 332.479 318.336 332.657 319.249 332.843C320.335 333.061 321.428 333.28 322.514 333.498C329.665 334.955 336.777 336.508 343.716 338.134C344.856 338.401 345.997 338.676 347.13 338.943C349.396 339.486 351.64 340.036 353.864 340.594C354.478 340.74 355.084 340.893 355.689 341.047C357.2 341.435 358.71 341.824 360.197 342.22L360.457 342.293C361.55 342.568 362.62 342.851 363.69 343.143C366.216 343.822 368.699 344.51 371.14 345.206C372.761 345.667 374.363 346.133 375.947 346.605C378.315 347.309 380.636 348.021 382.894 348.741C383.452 348.919 384.011 349.097 384.562 349.267C386.214 349.793 387.842 350.327 389.424 350.861C390.682 351.282 391.91 351.711 393.121 352.139C394.333 352.568 395.521 352.997 396.685 353.426C397.432 353.701 398.172 353.992 398.911 354.267C399.973 354.672 401.02 355.076 402.042 355.481C402.357 355.602 402.664 355.732 402.971 355.853C403.167 355.942 403.356 356.015 403.545 356.096C403.915 356.25 404.292 356.395 404.654 356.549C405.024 356.695 405.386 356.848 405.748 357.01C406.102 357.156 406.464 357.309 406.81 357.463C407.164 357.609 407.51 357.763 407.856 357.924C408.147 358.046 408.43 358.175 408.706 358.305C409.264 358.555 409.823 358.806 410.366 359.065C410.633 359.195 410.901 359.316 411.168 359.445L411.782 359.737C411.868 359.785 411.955 359.826 412.041 359.866C412.238 359.963 412.443 360.068 412.639 360.165C413.096 360.384 413.544 360.619 413.985 360.837C414.575 361.144 415.149 361.452 415.7 361.751C416.258 362.059 416.801 362.366 417.32 362.665C417.407 362.714 417.486 362.763 417.572 362.811C417.69 362.876 417.808 362.949 417.926 363.013C418.327 363.248 418.713 363.491 419.098 363.725C419.854 364.203 420.569 364.672 421.238 365.141C421.388 365.246 421.529 365.352 421.679 365.449C422.174 365.813 422.646 366.169 423.087 366.533C423.087 366.541 423.087 366.541 423.095 366.541C423.244 366.654 423.386 366.776 423.527 366.889C423.645 367.002 423.771 367.099 423.889 367.213C424.298 367.577 424.676 367.924 425.022 368.28C425.138 368.39 425.249 368.506 425.353 368.628C425.398 368.667 425.441 368.711 425.479 368.758C425.636 368.92 425.777 369.081 425.911 369.243C425.932 369.265 425.95 369.29 425.966 369.316C426.155 369.543 426.328 369.769 426.493 369.996C426.572 370.109 426.659 370.222 426.729 370.336C426.824 370.473 426.918 370.619 426.997 370.756C427.068 370.87 427.131 370.991 427.194 371.104C427.361 371.396 427.503 371.702 427.618 372.018C427.707 372.233 427.778 372.455 427.831 372.682C427.89 372.897 427.935 373.116 427.965 373.337Z" fill="#2F2E41"/>
<path opacity="0.2" d="M427.965 373.337C427.957 374.753 427.941 376.736 427.878 379.187C427.87 379.527 427.855 379.875 427.847 380.231C427.768 383.669 427.65 387.917 427.485 392.715C427.477 393.006 427.469 393.289 427.453 393.58C427.233 399.438 426.887 406.259 426.289 417.06C425.18 437.012 423.244 419.803 421.301 426.801C415.904 423.387 409.988 419.811 403.663 416.137C402.522 415.474 401.371 414.808 400.21 414.139C387.559 406.882 373.43 399.276 358.679 391.744C358.097 391.445 357.507 391.145 356.925 390.854C323.135 373.677 286.254 356.97 256.375 345.821C250.609 343.669 245.102 341.727 239.925 340.02C229.021 336.435 219.596 333.927 212.343 332.843C204.79 331.71 199.575 332.115 197.466 334.453C197.388 332.803 197.306 331.222 197.222 329.712C197.191 329.21 197.159 328.717 197.128 328.231C197.176 328.098 197.24 327.971 197.301 327.843C197.309 327.824 197.316 327.805 197.325 327.786C197.34 327.744 197.358 327.704 197.38 327.665C197.403 327.615 197.429 327.566 197.458 327.519C197.484 327.462 197.516 327.408 197.553 327.358C197.624 327.244 197.702 327.123 197.789 327.01C197.852 326.925 197.921 326.844 197.993 326.767C198.017 326.728 198.047 326.693 198.08 326.662C198.111 326.629 198.143 326.589 198.182 326.548C198.199 326.523 198.22 326.501 198.245 326.484C198.307 326.41 198.376 326.343 198.45 326.282C198.73 326.016 199.03 325.772 199.346 325.553C199.457 325.481 199.575 325.408 199.685 325.327C200.478 324.839 201.312 324.427 202.179 324.097C202.478 323.984 202.777 323.879 203.099 323.765C203.217 323.733 203.327 323.692 203.445 323.652C203.618 323.595 203.791 323.539 203.972 323.498C204.869 323.223 205.837 322.989 206.883 322.77C207.198 322.705 207.528 322.641 207.859 322.584C208.126 322.535 208.402 322.487 208.677 322.438C211.013 322.058 213.665 321.775 216.591 321.589C216.867 321.573 217.142 321.556 217.417 321.54C217.74 321.524 218.062 321.508 218.393 321.492C218.668 321.476 218.951 321.467 219.235 321.459C219.51 321.443 219.793 321.435 220.084 321.427C220.879 321.403 221.697 321.379 222.531 321.362C224.907 321.322 227.408 321.338 230.036 321.395C231.255 321.419 232.498 321.459 233.773 321.516C233.852 321.516 233.938 321.524 234.017 321.524C235.126 321.557 236.251 321.613 237.392 321.67C238.194 321.71 239.005 321.751 239.815 321.799C240.578 321.848 241.349 321.896 242.128 321.953C242.734 321.985 243.339 322.034 243.953 322.074C244.472 322.115 244.991 322.155 245.511 322.188C246.132 322.236 246.754 322.285 247.383 322.333C248.248 322.406 249.114 322.479 249.995 322.552C250.868 322.633 251.757 322.713 252.646 322.794C253.535 322.875 254.432 322.964 255.329 323.053C255.423 323.061 255.51 323.069 255.596 323.078C256.414 323.167 257.233 323.247 258.059 323.336C262.637 323.814 267.35 324.372 272.196 325.011C275.091 325.392 278.023 325.799 280.991 326.233C285.499 326.888 290.078 327.6 294.688 328.361C299.306 329.129 303.95 329.941 308.621 330.796C309.801 331.015 310.981 331.233 312.169 331.46C313.616 331.735 315.064 332.015 316.511 332.301C317.424 332.479 318.336 332.657 319.249 332.843C320.335 333.062 321.428 333.28 322.514 333.498C329.665 334.955 336.777 336.508 343.716 338.134C344.857 338.401 345.997 338.677 347.13 338.944C349.396 339.486 351.641 340.036 353.864 340.594C354.478 340.748 355.084 340.901 355.69 341.055C357.208 341.444 358.71 341.832 360.197 342.22V342.228C360.284 342.245 360.37 342.269 360.457 342.293C361.543 342.576 362.62 342.859 363.69 343.151C366.216 343.83 368.699 344.515 371.141 345.206C372.761 345.675 374.366 346.136 375.947 346.606C378.315 347.317 380.636 348.029 382.894 348.741C383.453 348.919 384.011 349.097 384.562 349.267C386.214 349.801 387.835 350.333 389.424 350.861C390.682 351.282 391.91 351.711 393.121 352.14C394.333 352.568 395.521 352.997 396.685 353.426C397.44 353.701 398.18 353.984 398.911 354.259C399.981 354.664 401.02 355.068 402.043 355.481C402.357 355.602 402.664 355.732 402.971 355.853C403.545 356.08 404.104 356.314 404.654 356.549C405.024 356.695 405.386 356.848 405.748 357.01C406.102 357.156 406.464 357.31 406.81 357.463C407.164 357.609 407.51 357.763 407.856 357.924C408.147 358.046 408.431 358.175 408.706 358.305C409.265 358.556 409.823 358.806 410.366 359.065C410.633 359.195 410.901 359.316 411.168 359.446L411.782 359.737C411.869 359.785 411.955 359.826 412.042 359.866C412.71 360.19 413.355 360.513 413.985 360.837C414.575 361.145 415.149 361.452 415.7 361.751C416.353 362.107 416.974 362.455 417.572 362.811C417.69 362.876 417.808 362.949 417.926 363.014C418.327 363.248 418.713 363.491 419.098 363.725C419.854 364.203 420.57 364.672 421.238 365.141C421.899 365.611 422.513 366.072 423.087 366.533C423.087 366.541 423.087 366.541 423.095 366.541C423.37 366.768 423.638 366.994 423.89 367.213C424.299 367.577 424.676 367.925 425.022 368.281C425.138 368.39 425.249 368.507 425.353 368.628C425.399 368.667 425.441 368.711 425.479 368.758C425.644 368.944 425.809 369.13 425.966 369.316C426.155 369.543 426.328 369.769 426.494 369.996C426.572 370.109 426.659 370.222 426.73 370.336C426.824 370.473 426.918 370.619 426.997 370.756C427.068 370.87 427.131 370.991 427.194 371.104C427.361 371.396 427.503 371.702 427.619 372.019C427.705 372.234 427.776 372.456 427.831 372.682C427.891 372.897 427.935 373.116 427.965 373.337Z" fill="black"/>
</g>
<defs>
<clipPath id="clip0_155_107">
<rect width="619" height="463" fill="white"/>
</clipPath>
</defs>
</svg>
