<svg width="245" height="27" viewBox="0 0 245 27" fill="none" xmlns="http://www.w3.org/2000/svg">
<path fill-rule="evenodd" clip-rule="evenodd" d="M4.33059 3.89753C2.5 5.54505 2.5 8.19669 2.5 13.5C2.5 18.8033 2.5 21.455 4.33059 23.1024C6.16116 24.75 9.10744 24.75 15 24.75C20.8925 24.75 23.8389 24.75 25.6694 23.1024C27.5 21.455 27.5 18.8033 27.5 13.5C27.5 8.19669 27.5 5.54505 25.6694 3.89753C23.8389 2.25 20.8925 2.25 15 2.25C9.10744 2.25 6.16116 2.25 4.33059 3.89753ZM16.8601 7.25165C17.3602 7.37225 17.657 7.83492 17.523 8.28503L14.2877 19.1517C14.1537 19.6018 13.6396 19.869 13.1395 19.7484C12.6394 19.6277 12.3426 19.165 12.4766 18.7149L15.7119 7.84827C15.8459 7.39816 16.36 7.13104 16.8601 7.25165ZM18.7121 9.52838C19.0782 9.19888 19.6717 9.19888 20.0379 9.52838L20.2984 9.76276C21.0925 10.4775 21.7547 11.0735 22.2097 11.6102C22.6901 12.1768 23.027 12.7754 23.027 13.5C23.027 14.2246 22.6901 14.8232 22.2097 15.3898C21.7547 15.9265 21.0925 16.5225 20.2984 17.2372L20.0379 17.4716C19.6717 17.8011 19.0782 17.8011 18.7121 17.4716C18.346 17.1421 18.346 16.6079 18.7121 16.2784L18.9265 16.0854C19.7786 15.3185 20.3496 14.8021 20.7191 14.3661C21.0721 13.9498 21.152 13.7073 21.152 13.5C21.152 13.2927 21.0721 13.0502 20.7191 12.6339C20.3496 12.1979 19.7786 11.6815 18.9265 10.9146L18.7121 10.7216C18.346 10.3921 18.346 9.85789 18.7121 9.52838ZM9.96232 9.52838C10.3284 9.19888 10.922 9.19888 11.2881 9.52838C11.6543 9.85789 11.6543 10.3921 11.2881 10.7216L11.0737 10.9146C10.2216 11.6815 9.65065 12.1979 9.2811 12.6339C8.92806 13.0502 8.84826 13.2927 8.84826 13.5C8.84826 13.7073 8.92806 13.9498 9.2811 14.3661C9.65065 14.8021 10.2216 15.3185 11.0737 16.0854L11.2881 16.2784C11.6543 16.6079 11.6543 17.1421 11.2881 17.4716C10.922 17.8011 10.3284 17.8011 9.96232 17.4716L9.70189 17.2372C8.90771 16.5225 8.24547 15.9265 7.79044 15.3898C7.31014 14.8232 6.97326 14.2246 6.97326 13.5C6.97326 12.7754 7.31014 12.1768 7.79044 11.6102C8.24547 11.0735 8.90771 10.4775 9.70189 9.76276L9.96232 9.52838Z" fill="#4BC400"/>
<path d="M38.064 21V14.868H34.536V21H31.092V6.447H34.536V12.033H38.064V6.447H41.508V21H38.064ZM46.9388 16.3905C47.0158 16.9995 47.1733 17.493 47.4113 17.871C47.6563 18.242 47.9678 18.515 48.3458 18.69C48.7238 18.858 49.1473 18.942 49.6163 18.942C50.1273 18.942 50.6208 18.858 51.0968 18.69C51.5728 18.522 52.0313 18.298 52.4723 18.018L53.8058 19.824C53.2808 20.272 52.6438 20.6395 51.8948 20.9265C51.1528 21.2135 50.3058 21.357 49.3538 21.357C48.0798 21.357 47.0123 21.105 46.1513 20.601C45.2903 20.09 44.6428 19.39 44.2088 18.501C43.7748 17.612 43.5578 16.59 43.5578 15.435C43.5578 14.336 43.7678 13.3385 44.1878 12.4425C44.6078 11.5395 45.2203 10.822 46.0253 10.29C46.8373 9.751 47.8278 9.4815 48.9968 9.4815C50.0608 9.4815 50.9813 9.709 51.7583 10.164C52.5423 10.619 53.1478 11.2735 53.5748 12.1275C54.0088 12.9815 54.2258 14.007 54.2258 15.204C54.2258 15.393 54.2188 15.596 54.2048 15.813C54.1978 16.03 54.1838 16.2225 54.1628 16.3905H46.9388ZM48.9968 11.7075C48.4018 11.7075 47.9223 11.921 47.5583 12.348C47.1943 12.775 46.9738 13.4575 46.8968 14.3955H50.9918C50.9848 13.5835 50.8273 12.9325 50.5193 12.4425C50.2113 11.9525 49.7038 11.7075 48.9968 11.7075ZM62.4706 5.418V17.493C62.4706 17.941 62.5966 18.263 62.8486 18.459C63.1076 18.648 63.4611 18.7425 63.9091 18.7425C64.1961 18.7425 64.4726 18.711 64.7386 18.648C65.0046 18.578 65.2531 18.4975 65.4841 18.4065L66.2821 20.622C65.9041 20.818 65.4491 20.9895 64.9171 21.1365C64.3851 21.2835 63.7656 21.357 63.0586 21.357C61.7146 21.357 60.7276 20.972 60.0976 20.202C59.4676 19.425 59.1526 18.3855 59.1526 17.0835V7.686H55.8661V5.418H62.4706ZM75.0624 5.418V17.493C75.0624 17.941 75.1884 18.263 75.4404 18.459C75.6994 18.648 76.0529 18.7425 76.5009 18.7425C76.7879 18.7425 77.0644 18.711 77.3304 18.648C77.5964 18.578 77.8449 18.4975 78.0759 18.4065L78.8739 20.622C78.4959 20.818 78.0409 20.9895 77.5089 21.1365C76.9769 21.2835 76.3574 21.357 75.6504 21.357C74.3064 21.357 73.3194 20.972 72.6894 20.202C72.0594 19.425 71.7444 18.3855 71.7444 17.0835V7.686H68.4579V5.418H75.0624ZM86.6672 9.4815C87.8152 9.4815 88.7917 9.7265 89.5967 10.2165C90.4017 10.7065 91.0177 11.396 91.4447 12.285C91.8717 13.167 92.0852 14.203 92.0852 15.393C92.0852 16.632 91.8682 17.6995 91.4342 18.5955C91.0072 19.4845 90.3912 20.167 89.5862 20.643C88.7812 21.119 87.8082 21.357 86.6672 21.357C85.5332 21.357 84.5602 21.1225 83.7482 20.6535C82.9432 20.1845 82.3237 19.5055 81.8897 18.6165C81.4627 17.7275 81.2492 16.66 81.2492 15.414C81.2492 14.231 81.4627 13.195 81.8897 12.306C82.3237 11.417 82.9432 10.724 83.7482 10.227C84.5602 9.73 85.5332 9.4815 86.6672 9.4815ZM86.6672 11.928C85.9882 11.928 85.4842 12.208 85.1552 12.768C84.8332 13.321 84.6722 14.203 84.6722 15.414C84.6722 16.646 84.8332 17.5385 85.1552 18.0915C85.4842 18.6445 85.9882 18.921 86.6672 18.921C87.3462 18.921 87.8467 18.6445 88.1687 18.0915C88.4977 17.5385 88.6622 16.639 88.6622 15.393C88.6622 14.189 88.4977 13.3105 88.1687 12.7575C87.8467 12.2045 87.3462 11.928 86.6672 11.928ZM105.622 6.447L103.921 21H100.34L99.28 10.5945L98.1145 21H94.471L92.896 6.447H96.1195L96.613 18.06L97.8205 8.127H100.781L101.905 18.06L102.629 6.447H105.622ZM111.851 9.4815C112.999 9.4815 113.975 9.7265 114.78 10.2165C115.585 10.7065 116.201 11.396 116.628 12.285C117.055 13.167 117.269 14.203 117.269 15.393C117.269 16.632 117.052 17.6995 116.618 18.5955C116.191 19.4845 115.575 20.167 114.77 20.643C113.965 21.119 112.992 21.357 111.851 21.357C110.717 21.357 109.744 21.1225 108.932 20.6535C108.127 20.1845 107.507 19.5055 107.073 18.6165C106.646 17.7275 106.433 16.66 106.433 15.414C106.433 14.231 106.646 13.195 107.073 12.306C107.507 11.417 108.127 10.724 108.932 10.227C109.744 9.73 110.717 9.4815 111.851 9.4815ZM111.851 11.928C111.172 11.928 110.668 12.208 110.339 12.768C110.017 13.321 109.856 14.203 109.856 15.414C109.856 16.646 110.017 17.5385 110.339 18.0915C110.668 18.6445 111.172 18.921 111.851 18.921C112.53 18.921 113.03 18.6445 113.352 18.0915C113.681 17.5385 113.846 16.639 113.846 15.393C113.846 14.189 113.681 13.3105 113.352 12.7575C113.03 12.2045 112.53 11.928 111.851 11.928ZM119.718 21V18.774H121.188V12.054H119.718V9.849H123.718L124.327 12.3585C124.726 11.3995 125.234 10.6855 125.85 10.2165C126.473 9.7475 127.232 9.513 128.128 9.513C128.506 9.513 128.842 9.5445 129.136 9.6075C129.43 9.6635 129.707 9.744 129.966 9.849L128.958 12.5895C128.755 12.5335 128.552 12.4915 128.349 12.4635C128.146 12.4355 127.922 12.4215 127.677 12.4215C126.949 12.4215 126.308 12.719 125.755 13.314C125.209 13.909 124.793 14.665 124.506 15.582V18.774H126.711V21H119.718ZM127.267 14.511V11.256L127.761 9.849H129.966L129.346 14.511H127.267ZM138.021 5.418V17.493C138.021 17.941 138.147 18.263 138.399 18.459C138.658 18.648 139.012 18.7425 139.46 18.7425C139.747 18.7425 140.023 18.711 140.289 18.648C140.555 18.578 140.804 18.4975 141.035 18.4065L141.833 20.622C141.455 20.818 141 20.9895 140.468 21.1365C139.936 21.2835 139.316 21.357 138.609 21.357C137.265 21.357 136.278 20.972 135.648 20.202C135.018 19.425 134.703 18.3855 134.703 17.0835V7.686H131.417V5.418H138.021ZM151.138 5.0715L154.456 5.418V21H151.516L151.348 19.7715C151.04 20.2055 150.631 20.58 150.12 20.895C149.609 21.203 148.989 21.357 148.261 21.357C147.337 21.357 146.571 21.1085 145.962 20.6115C145.36 20.1145 144.908 19.4215 144.607 18.5325C144.313 17.6365 144.166 16.59 144.166 15.393C144.166 14.245 144.345 13.2265 144.702 12.3375C145.059 11.4485 145.57 10.752 146.235 10.248C146.9 9.737 147.691 9.4815 148.608 9.4815C149.105 9.4815 149.567 9.569 149.994 9.744C150.421 9.919 150.802 10.1745 151.138 10.5105V5.0715ZM149.5 11.907C148.926 11.907 148.464 12.18 148.114 12.726C147.764 13.265 147.589 14.161 147.589 15.414C147.589 16.331 147.663 17.045 147.81 17.556C147.957 18.06 148.16 18.4135 148.419 18.6165C148.678 18.8195 148.975 18.921 149.311 18.921C149.682 18.921 150.018 18.8055 150.319 18.5745C150.627 18.3435 150.9 18.0285 151.138 17.6295V12.8205C150.907 12.5335 150.662 12.3095 150.403 12.1485C150.144 11.9875 149.843 11.907 149.5 11.907ZM159.876 19.0155C159.876 18.5885 159.981 18.2 160.191 17.85C160.401 17.493 160.685 17.2095 161.042 16.9995C161.399 16.7825 161.791 16.674 162.218 16.674C162.652 16.674 163.044 16.7825 163.394 16.9995C163.751 17.2095 164.034 17.493 164.244 17.85C164.454 18.2 164.559 18.5885 164.559 19.0155C164.559 19.4355 164.454 19.824 164.244 20.181C164.034 20.538 163.751 20.8215 163.394 21.0315C163.044 21.2485 162.652 21.357 162.218 21.357C161.791 21.357 161.399 21.2485 161.042 21.0315C160.685 20.8215 160.401 20.538 160.191 20.181C159.981 19.824 159.876 19.4355 159.876 19.0155ZM176.511 9.0825V21H173.067V9.0825H168.982V6.447H180.763L180.406 9.0825H176.511ZM185.449 16.3905C185.526 16.9995 185.683 17.493 185.921 17.871C186.166 18.242 186.478 18.515 186.856 18.69C187.234 18.858 187.657 18.942 188.126 18.942C188.637 18.942 189.131 18.858 189.607 18.69C190.083 18.522 190.541 18.298 190.982 18.018L192.316 19.824C191.791 20.272 191.154 20.6395 190.405 20.9265C189.663 21.2135 188.816 21.357 187.864 21.357C186.59 21.357 185.522 21.105 184.661 20.601C183.8 20.09 183.153 19.39 182.719 18.501C182.285 17.612 182.068 16.59 182.068 15.435C182.068 14.336 182.278 13.3385 182.698 12.4425C183.118 11.5395 183.73 10.822 184.535 10.29C185.347 9.751 186.338 9.4815 187.507 9.4815C188.571 9.4815 189.491 9.709 190.268 10.164C191.052 10.619 191.658 11.2735 192.085 12.1275C192.519 12.9815 192.736 14.007 192.736 15.204C192.736 15.393 192.729 15.596 192.715 15.813C192.708 16.03 192.694 16.2225 192.673 16.3905H185.449ZM187.507 11.7075C186.912 11.7075 186.432 11.921 186.068 12.348C185.704 12.775 185.484 13.4575 185.407 14.3955H189.502C189.495 13.5835 189.337 12.9325 189.029 12.4425C188.721 11.9525 188.214 11.7075 187.507 11.7075ZM201.075 18.7425C201.53 18.7425 201.957 18.655 202.356 18.48C202.762 18.298 203.164 18.067 203.563 17.787L205.044 19.887C204.554 20.307 203.955 20.657 203.248 20.937C202.548 21.217 201.764 21.357 200.896 21.357C199.699 21.357 198.67 21.112 197.809 20.622C196.948 20.125 196.287 19.439 195.825 18.564C195.363 17.682 195.132 16.66 195.132 15.498C195.132 14.336 195.366 13.3035 195.835 12.4005C196.311 11.4905 196.983 10.7765 197.851 10.2585C198.726 9.7405 199.762 9.4815 200.959 9.4815C201.806 9.4815 202.559 9.6005 203.217 9.8385C203.882 10.0695 204.491 10.416 205.044 10.878L203.605 12.873C203.227 12.607 202.828 12.4005 202.408 12.2535C201.988 12.1065 201.551 12.033 201.096 12.033C200.347 12.033 199.741 12.299 199.279 12.831C198.824 13.356 198.597 14.245 198.597 15.498C198.597 16.317 198.705 16.9645 198.922 17.4405C199.139 17.9095 199.433 18.2455 199.804 18.4485C200.182 18.6445 200.606 18.7425 201.075 18.7425ZM211.073 5.0925V10.9515C211.542 10.4545 212.05 10.087 212.596 9.849C213.149 9.604 213.733 9.4815 214.349 9.4815C215.343 9.4815 216.103 9.772 216.628 10.353C217.153 10.934 217.415 11.753 217.415 12.81V21H214.097V13.734C214.097 13.062 214.02 12.593 213.866 12.327C213.719 12.061 213.439 11.928 213.026 11.928C212.795 11.928 212.568 11.984 212.344 12.096C212.127 12.201 211.913 12.355 211.703 12.558C211.493 12.761 211.283 13.0025 211.073 13.2825V21H207.755V5.418L211.073 5.0925Z" fill="black"/>
</svg>
