<svg width="180" height="180" viewBox="0 0 180 180" fill="none" xmlns="http://www.w3.org/2000/svg">
<path fill-rule="evenodd" clip-rule="evenodd" d="M13.1802 13.1802C-1.07288e-06 26.3604 0 47.5736 0 90C0 132.426 -1.07288e-06 153.64 13.1802 166.819C26.3604 180 47.5736 180 90 180C132.426 180 153.64 180 166.819 166.819C180 153.64 180 132.426 180 90C180 47.5736 180 26.3604 166.819 13.1802C153.64 -1.07288e-06 132.426 0 90 0C47.5736 0 26.3604 -1.07288e-06 13.1802 13.1802ZM103.393 40.0132C106.994 40.978 109.13 44.6793 108.166 48.2802L84.8718 135.213C83.907 138.814 80.2053 140.952 76.6044 139.987C73.0035 139.021 70.8669 135.32 71.8318 131.719L95.1255 44.7862C96.0903 41.1853 99.792 39.0483 103.393 40.0132ZM116.727 58.227C119.363 55.591 123.637 55.591 126.273 58.227L128.148 60.1021C133.866 65.8197 138.634 70.5877 141.91 74.8818C145.369 79.4142 147.794 84.2031 147.794 90C147.794 95.7969 145.369 100.586 141.91 105.118C138.634 109.412 133.866 114.18 128.148 119.898L126.273 121.773C123.637 124.409 119.363 124.409 116.727 121.773C114.091 119.137 114.091 114.863 116.727 112.227L118.271 110.683C124.406 104.548 128.517 100.417 131.178 96.9291C133.719 93.5982 134.294 91.6587 134.294 90C134.294 88.3413 133.719 86.4018 131.178 83.0709C128.517 79.5834 124.406 75.4524 118.271 69.3172L116.727 67.773C114.091 65.137 114.091 60.8631 116.727 58.227ZM53.7287 58.227C56.3648 55.591 60.6386 55.591 63.2747 58.227C65.9107 60.8631 65.9107 65.137 63.2747 67.773L61.7305 69.3172C55.5956 75.4524 51.4847 79.5834 48.8239 83.0709C46.2821 86.4018 45.7075 88.3413 45.7075 90C45.7075 91.6587 46.2821 93.5982 48.8239 96.9291C51.4847 100.417 55.5956 104.548 61.7305 110.683L63.2747 112.227C65.9107 114.863 65.9107 119.137 63.2747 121.773C60.6386 124.409 56.3648 124.409 53.7287 121.773L51.8536 119.898C46.1355 114.18 41.3674 109.412 38.0911 105.118C34.633 100.586 32.2075 95.7969 32.2075 90C32.2075 84.2031 34.633 79.4142 38.0911 74.8818C41.3674 70.5877 46.1355 65.8198 51.8536 60.1021L53.7287 58.227Z" fill="#4BC400"/>
</svg>
