<svg width="64" height="64" viewBox="0 0 64 64" fill="none" xmlns="http://www.w3.org/2000/svg">
<path fill-rule="evenodd" clip-rule="evenodd" d="M4.6863 4.6863C-3.8147e-07 9.37258 0 16.915 0 32C0 47.0848 -3.8147e-07 54.6275 4.6863 59.3136C9.37258 64 16.915 64 32 64C47.0848 64 54.6275 64 59.3136 59.3136C64 54.6275 64 47.0848 64 32C64 16.915 64 9.37258 59.3136 4.6863C54.6275 -3.8147e-07 47.0848 0 32 0C16.915 0 9.37258 -3.8147e-07 4.6863 4.6863ZM36.7619 14.2269C38.0422 14.57 38.8019 15.886 38.4589 17.1663L30.1766 48.0758C29.8336 49.3562 28.5174 50.1162 27.2371 49.7731C25.9568 49.4298 25.1971 48.1139 25.5402 46.8336L33.8224 15.924C34.1654 14.6436 35.4816 13.8838 36.7619 14.2269ZM41.503 20.7029C42.4403 19.7657 43.9597 19.7657 44.897 20.7029L45.5638 21.3696C47.5968 23.4026 49.2922 25.0979 50.457 26.6246C51.6867 28.2362 52.5491 29.9389 52.5491 32C52.5491 34.0611 51.6867 35.7638 50.457 37.3754C49.2922 38.9021 47.5968 40.5974 45.5638 42.6304L44.897 43.297C43.9597 44.2342 42.4403 44.2342 41.503 43.297C40.5658 42.3597 40.5658 40.8403 41.503 39.903L42.0518 39.3539C44.2333 37.1725 45.695 35.7037 46.641 34.4637C47.5446 33.2794 47.7491 32.5898 47.7491 32C47.7491 31.4102 47.5446 30.7206 46.641 29.5363C45.695 28.2963 44.2333 26.8275 42.0518 24.6461L41.503 24.0971C40.5658 23.1598 40.5658 21.6402 41.503 20.7029ZM19.1036 20.7029C20.0408 19.7657 21.5604 19.7657 22.4977 20.7029C23.4349 21.6402 23.4349 23.1598 22.4977 24.0971L21.9486 24.6461C19.7673 26.8275 18.3057 28.2963 17.3596 29.5363C16.4558 30.7206 16.2516 31.4102 16.2516 32C16.2516 32.5898 16.4558 33.2794 17.3596 34.4637C18.3057 35.7037 19.7673 37.1725 21.9486 39.3539L22.4977 39.903C23.4349 40.8403 23.4349 42.3597 22.4977 43.297C21.5604 44.2342 20.0408 44.2342 19.1036 43.297L18.4368 42.6304C16.4037 40.5974 14.7084 38.9021 13.5435 37.3754C12.314 35.7638 11.4516 34.0611 11.4516 32C11.4516 29.9389 12.314 28.2362 13.5435 26.6246C14.7084 25.0979 16.4037 23.4026 18.4368 21.3696L19.1036 20.7029Z" fill="#4BC400"/>
</svg>
